<mxfile host="65bd71144e">
    <diagram id="ktWATJik5ayXsvhAUB-e" name="Page-1">
        <mxGraphModel dx="6605" dy="7223" grid="1" gridSize="10" guides="1" tooltips="1" connect="1" arrows="1" fold="1" page="1" pageScale="1" pageWidth="827" pageHeight="1169" math="0" shadow="0">
            <root>
                <mxCell id="0"/>
                <mxCell id="1" parent="0"/>
                <mxCell id="3" value="" style="edgeStyle=orthogonalEdgeStyle;rounded=0;orthogonalLoop=1;jettySize=auto;html=1;fontSize=8;" parent="1" source="7" target="8" edge="1">
                    <mxGeometry relative="1" as="geometry"/>
                </mxCell>
                <mxCell id="4" value="TRUE:삭제함" style="edgeLabel;html=1;align=center;verticalAlign=middle;resizable=0;points=[];fontSize=8;" parent="3" vertex="1" connectable="0">
                    <mxGeometry x="-0.2077" y="-2" relative="1" as="geometry">
                        <mxPoint x="9" y="-2" as="offset"/>
                    </mxGeometry>
                </mxCell>
                <mxCell id="5" value="" style="edgeStyle=orthogonalEdgeStyle;rounded=0;orthogonalLoop=1;jettySize=auto;html=1;fontSize=8;" parent="1" source="7" target="13" edge="1">
                    <mxGeometry relative="1" as="geometry"/>
                </mxCell>
                <mxCell id="6" value="FALSE:삭제하지 않음" style="edgeLabel;html=1;align=center;verticalAlign=middle;resizable=0;points=[];fontSize=8;" parent="5" vertex="1" connectable="0">
                    <mxGeometry x="-0.1596" relative="1" as="geometry">
                        <mxPoint as="offset"/>
                    </mxGeometry>
                </mxCell>
                <mxCell id="7" value="&lt;font style=&quot;font-size: 8px;&quot;&gt;&lt;span style=&quot;font-size: 8px;&quot;&gt;배출자가 배출신청내역을 &lt;br style=&quot;font-size: 8px;&quot;&gt;삭제하였는가?&lt;br style=&quot;font-size: 8px;&quot;&gt;SITE_WSTE_DISPOSAL_ORDER&lt;/span&gt;&lt;br style=&quot;font-size: 8px;&quot;&gt;&lt;span style=&quot;font-size: 8px;&quot;&gt;IS_DELETED&lt;/span&gt;&lt;br style=&quot;font-size: 8px;&quot;&gt;&lt;/font&gt;" style="rhombus;whiteSpace=wrap;html=1;shadow=0;fontFamily=Helvetica;fontSize=8;align=center;strokeWidth=1;spacing=6;spacingTop=-4;" parent="1" vertex="1">
                    <mxGeometry x="1990" y="-1180" width="220" height="176" as="geometry"/>
                </mxCell>
                <mxCell id="8" value="214:&lt;br style=&quot;font-size: 8px;&quot;&gt;삭제" style="whiteSpace=wrap;html=1;shadow=0;strokeWidth=1;spacing=6;spacingTop=-4;fontSize=8;" parent="1" vertex="1">
                    <mxGeometry x="2400" y="-1122" width="120" height="60" as="geometry"/>
                </mxCell>
                <mxCell id="9" value="" style="edgeStyle=orthogonalEdgeStyle;rounded=0;orthogonalLoop=1;jettySize=auto;html=1;fontSize=8;entryX=0.5;entryY=0;entryDx=0;entryDy=0;" parent="1" source="13" target="19" edge="1">
                    <mxGeometry relative="1" as="geometry">
                        <mxPoint x="2120" y="-668" as="targetPoint"/>
                    </mxGeometry>
                </mxCell>
                <mxCell id="10" value="TRUE:방문일정 있음" style="edgeLabel;html=1;align=center;verticalAlign=middle;resizable=0;points=[];fontSize=8;" parent="9" vertex="1" connectable="0">
                    <mxGeometry x="-0.1301" relative="1" as="geometry">
                        <mxPoint as="offset"/>
                    </mxGeometry>
                </mxCell>
                <mxCell id="11" style="edgeStyle=orthogonalEdgeStyle;rounded=0;orthogonalLoop=1;jettySize=auto;html=1;exitX=1;exitY=0.5;exitDx=0;exitDy=0;fontSize=8;entryX=1;entryY=0.5;entryDx=0;entryDy=0;" parent="1" source="317" target="167" edge="1">
                    <mxGeometry relative="1" as="geometry">
                        <mxPoint x="2300" y="1009.1428571428571" as="targetPoint"/>
                        <Array as="points">
                            <mxPoint x="2900" y="-836"/>
                            <mxPoint x="2900" y="998"/>
                        </Array>
                    </mxGeometry>
                </mxCell>
                <mxCell id="12" value="&lt;span style=&quot;font-size: 8px&quot;&gt;TRUE: 입찰하였음&lt;/span&gt;" style="edgeLabel;html=1;align=center;verticalAlign=middle;resizable=0;points=[];fontSize=8;" parent="11" vertex="1" connectable="0">
                    <mxGeometry x="-0.9711" relative="1" as="geometry">
                        <mxPoint x="49" as="offset"/>
                    </mxGeometry>
                </mxCell>
                <mxCell id="318" style="edgeStyle=orthogonalEdgeStyle;html=1;entryX=0;entryY=0.5;entryDx=0;entryDy=0;fontSize=8;" parent="1" source="13" target="317" edge="1">
                    <mxGeometry relative="1" as="geometry"/>
                </mxCell>
                <mxCell id="319" value="FALSE:방문일정 없음" style="edgeLabel;html=1;align=center;verticalAlign=middle;resizable=0;points=[];fontSize=8;" parent="318" vertex="1" connectable="0">
                    <mxGeometry x="-0.2978" y="1" relative="1" as="geometry">
                        <mxPoint as="offset"/>
                    </mxGeometry>
                </mxCell>
                <mxCell id="13" value="&lt;font style=&quot;font-size: 8px;&quot;&gt;&lt;font style=&quot;font-size: 8px;&quot;&gt;배출자가 방문일정을 &lt;br style=&quot;font-size: 8px;&quot;&gt;결정하였는가?&lt;br style=&quot;font-size: 8px;&quot;&gt;&lt;/font&gt;&lt;span style=&quot;font-size: 8px;&quot;&gt;SITE_WSTE_DISPOSAL_ORDER&lt;/span&gt;&lt;br style=&quot;font-size: 8px;&quot;&gt;&lt;span style=&quot;font-size: 8px;&quot;&gt;VISIT_END_AT IS NOT NULL&lt;/span&gt;&lt;br style=&quot;font-size: 8px;&quot;&gt;&lt;/font&gt;" style="rhombus;whiteSpace=wrap;html=1;shadow=0;fontFamily=Helvetica;fontSize=8;align=center;strokeWidth=1;spacing=6;spacingTop=-4;" parent="1" vertex="1">
                    <mxGeometry x="1990" y="-924" width="220" height="176" as="geometry"/>
                </mxCell>
                <mxCell id="14" value="&lt;font style=&quot;font-size: 8px;&quot;&gt;수거자 상태 흐름도&lt;/font&gt;" style="shape=process;whiteSpace=wrap;html=1;backgroundOutline=1;fontSize=8;" parent="1" vertex="1">
                    <mxGeometry x="2070" y="-1400" width="430" height="60" as="geometry"/>
                </mxCell>
                <mxCell id="15" value="" style="edgeStyle=orthogonalEdgeStyle;rounded=0;orthogonalLoop=1;jettySize=auto;html=1;entryX=1;entryY=0.5;entryDx=0;entryDy=0;fontSize=8;" parent="1" source="19" target="120" edge="1">
                    <mxGeometry relative="1" as="geometry">
                        <mxPoint x="1860" y="-510" as="targetPoint"/>
                    </mxGeometry>
                </mxCell>
                <mxCell id="16" value="FALSE:방문신청 없음" style="edgeLabel;html=1;align=center;verticalAlign=middle;resizable=0;points=[];fontSize=8;" parent="15" vertex="1" connectable="0">
                    <mxGeometry x="-0.1872" y="-2" relative="1" as="geometry">
                        <mxPoint as="offset"/>
                    </mxGeometry>
                </mxCell>
                <mxCell id="242" value="" style="edgeStyle=orthogonalEdgeStyle;html=1;entryX=0.5;entryY=0;entryDx=0;entryDy=0;fontSize=8;" parent="1" source="19" target="35" edge="1">
                    <mxGeometry relative="1" as="geometry">
                        <mxPoint x="2100" y="-390" as="targetPoint"/>
                    </mxGeometry>
                </mxCell>
                <mxCell id="266" value="TRUE: 방문신청함" style="edgeLabel;html=1;align=center;verticalAlign=middle;resizable=0;points=[];fontSize=8;" parent="242" vertex="1" connectable="0">
                    <mxGeometry x="-0.6172" relative="1" as="geometry">
                        <mxPoint as="offset"/>
                    </mxGeometry>
                </mxCell>
                <mxCell id="19" value="&lt;font style=&quot;font-size: 8px;&quot;&gt;&lt;font style=&quot;font-size: 8px;&quot;&gt;&lt;font style=&quot;font-size: 8px;&quot;&gt;수거자가 방문신청을 하였는가?&lt;br style=&quot;font-size: 8px;&quot;&gt;COLLECTOR_BIDDING&lt;br style=&quot;font-size: 8px;&quot;&gt;&lt;/font&gt;DATE_OF_VISIT IS NOT NULL&lt;/font&gt;&lt;br style=&quot;font-size: 8px;&quot;&gt;&lt;/font&gt;" style="rhombus;whiteSpace=wrap;html=1;shadow=0;fontFamily=Helvetica;fontSize=8;align=center;strokeWidth=1;spacing=6;spacingTop=-4;" parent="1" vertex="1">
                    <mxGeometry x="1990" y="-667" width="220" height="176" as="geometry"/>
                </mxCell>
                <mxCell id="20" value="" style="edgeStyle=orthogonalEdgeStyle;rounded=0;orthogonalLoop=1;jettySize=auto;html=1;fontSize=8;" parent="1" source="24" target="29" edge="1">
                    <mxGeometry relative="1" as="geometry"/>
                </mxCell>
                <mxCell id="21" value="TRUE:의사표시함" style="edgeLabel;html=1;align=center;verticalAlign=middle;resizable=0;points=[];fontSize=8;" parent="20" vertex="1" connectable="0">
                    <mxGeometry x="-0.2458" y="1" relative="1" as="geometry">
                        <mxPoint as="offset"/>
                    </mxGeometry>
                </mxCell>
                <mxCell id="22" value="" style="edgeStyle=orthogonalEdgeStyle;rounded=0;orthogonalLoop=1;jettySize=auto;html=1;fontSize=8;" parent="1" source="24" target="92" edge="1">
                    <mxGeometry relative="1" as="geometry"/>
                </mxCell>
                <mxCell id="23" value="FALSE:의사표시없음" style="edgeLabel;html=1;align=center;verticalAlign=middle;resizable=0;points=[];fontSize=8;" parent="22" vertex="1" connectable="0">
                    <mxGeometry x="-0.3431" y="-1" relative="1" as="geometry">
                        <mxPoint x="24" y="-1" as="offset"/>
                    </mxGeometry>
                </mxCell>
                <mxCell id="24" value="&lt;font style=&quot;font-size: 8px;&quot;&gt;&lt;font style=&quot;font-size: 8px;&quot;&gt;배출자가 수거자의 방문신청에 &lt;br style=&quot;font-size: 8px;&quot;&gt;대하여 수락 또는 거절의사를 밝혔는가?&lt;br style=&quot;font-size: 8px;&quot;&gt;SITE_WSTE_DISPOSAL_ORDER&lt;br style=&quot;font-size: 8px;&quot;&gt;RESPONSE_VISIT IS NOT NULL&lt;/font&gt;&lt;br style=&quot;font-size: 8px;&quot;&gt;&lt;/font&gt;" style="rhombus;whiteSpace=wrap;html=1;shadow=0;fontFamily=Helvetica;fontSize=8;align=center;strokeWidth=1;spacing=6;spacingTop=-4;" parent="1" vertex="1">
                    <mxGeometry x="1990" y="-145" width="220" height="176" as="geometry"/>
                </mxCell>
                <mxCell id="25" value="" style="edgeStyle=orthogonalEdgeStyle;rounded=0;orthogonalLoop=1;jettySize=auto;html=1;fontSize=8;" parent="1" source="29" target="30" edge="1">
                    <mxGeometry relative="1" as="geometry"/>
                </mxCell>
                <mxCell id="26" value="FALSE:거절함" style="edgeLabel;html=1;align=center;verticalAlign=middle;resizable=0;points=[];fontSize=8;" parent="25" vertex="1" connectable="0">
                    <mxGeometry x="0.2103" y="-2" relative="1" as="geometry">
                        <mxPoint x="18" y="2" as="offset"/>
                    </mxGeometry>
                </mxCell>
                <mxCell id="27" value="" style="edgeStyle=orthogonalEdgeStyle;rounded=0;orthogonalLoop=1;jettySize=auto;html=1;entryX=0.5;entryY=0;entryDx=0;entryDy=0;fontSize=8;" parent="1" source="29" target="253" edge="1">
                    <mxGeometry relative="1" as="geometry">
                        <mxPoint x="2130" y="635" as="targetPoint"/>
                    </mxGeometry>
                </mxCell>
                <mxCell id="28" value="TRUE:수락함" style="edgeLabel;html=1;align=center;verticalAlign=middle;resizable=0;points=[];fontSize=8;" parent="27" vertex="1" connectable="0">
                    <mxGeometry x="-0.2083" relative="1" as="geometry">
                        <mxPoint as="offset"/>
                    </mxGeometry>
                </mxCell>
                <mxCell id="29" value="&lt;span style=&quot;font-size: 8px;&quot;&gt;배출자가 수거자의 방문신청을&lt;br style=&quot;font-size: 8px;&quot;&gt;수락하였는가?&lt;/span&gt;&lt;br style=&quot;font-size: 8px;&quot;&gt;&lt;span style=&quot;font-size: 8px;&quot;&gt;SITE_WSTE_DISPOSAL_ORDER&lt;/span&gt;&lt;br style=&quot;font-size: 8px;&quot;&gt;&lt;span style=&quot;font-size: 8px;&quot;&gt;RESPONSE_VISIT = TRUE&lt;/span&gt;&lt;span style=&quot;font-size: 8px;&quot;&gt;&lt;br style=&quot;font-size: 8px;&quot;&gt;&lt;/span&gt;" style="rhombus;whiteSpace=wrap;html=1;shadow=0;fontFamily=Helvetica;fontSize=8;align=center;strokeWidth=1;spacing=6;spacingTop=-4;" parent="1" vertex="1">
                    <mxGeometry x="1990" y="111" width="220" height="176" as="geometry"/>
                </mxCell>
                <mxCell id="30" value="203:&lt;br style=&quot;font-size: 8px;&quot;&gt;방문거절" style="whiteSpace=wrap;html=1;shadow=0;strokeWidth=1;spacing=6;spacingTop=-4;fontSize=8;" parent="1" vertex="1">
                    <mxGeometry x="1720" y="169" width="120" height="60" as="geometry"/>
                </mxCell>
                <mxCell id="31" value="" style="edgeStyle=orthogonalEdgeStyle;rounded=0;orthogonalLoop=1;jettySize=auto;html=1;fontSize=8;" parent="1" source="35" target="36" edge="1">
                    <mxGeometry relative="1" as="geometry"/>
                </mxCell>
                <mxCell id="32" value="TRUE:취소함" style="edgeLabel;html=1;align=center;verticalAlign=middle;resizable=0;points=[];fontSize=8;" parent="31" vertex="1" connectable="0">
                    <mxGeometry x="-0.1626" relative="1" as="geometry">
                        <mxPoint as="offset"/>
                    </mxGeometry>
                </mxCell>
                <mxCell id="33" value="" style="edgeStyle=orthogonalEdgeStyle;rounded=0;orthogonalLoop=1;jettySize=auto;html=1;entryX=0.5;entryY=0;entryDx=0;entryDy=0;fontSize=8;" parent="1" source="35" target="24" edge="1">
                    <mxGeometry relative="1" as="geometry">
                        <mxPoint x="2110" y="-165" as="targetPoint"/>
                    </mxGeometry>
                </mxCell>
                <mxCell id="34" value="FALSE:취소하지 않음" style="edgeLabel;html=1;align=center;verticalAlign=middle;resizable=0;points=[];fontSize=8;" parent="33" vertex="1" connectable="0">
                    <mxGeometry x="-0.3526" relative="1" as="geometry">
                        <mxPoint as="offset"/>
                    </mxGeometry>
                </mxCell>
                <mxCell id="35" value="&lt;font style=&quot;font-size: 8px;&quot;&gt;&lt;font style=&quot;font-size: 8px;&quot;&gt;수거자가 자신의 방문을&lt;br style=&quot;font-size: 8px;&quot;&gt;취소하였는가?&lt;br style=&quot;font-size: 8px;&quot;&gt;&lt;font style=&quot;font-size: 8px;&quot;&gt;COLLECTOR_BIDDING&lt;br style=&quot;font-size: 8px;&quot;&gt;&lt;/font&gt;CANCEL_VISIT = TRUE&lt;/font&gt;&lt;br style=&quot;font-size: 8px;&quot;&gt;&lt;/font&gt;" style="rhombus;whiteSpace=wrap;html=1;shadow=0;fontFamily=Helvetica;fontSize=8;align=center;strokeWidth=1;spacing=6;spacingTop=-4;" parent="1" vertex="1">
                    <mxGeometry x="1990" y="-400" width="220" height="176" as="geometry"/>
                </mxCell>
                <mxCell id="36" value="202:&lt;br style=&quot;font-size: 8px;&quot;&gt;방문포기" style="whiteSpace=wrap;html=1;shadow=0;strokeWidth=1;spacing=6;spacingTop=-4;fontSize=8;" parent="1" vertex="1">
                    <mxGeometry x="2400" y="-342" width="120" height="60" as="geometry"/>
                </mxCell>
                <mxCell id="37" value="" style="edgeStyle=orthogonalEdgeStyle;rounded=0;orthogonalLoop=1;jettySize=auto;html=1;fontSize=8;" parent="1" source="41" target="42" edge="1">
                    <mxGeometry relative="1" as="geometry"/>
                </mxCell>
                <mxCell id="38" value="FALSE:미종료" style="edgeLabel;html=1;align=center;verticalAlign=middle;resizable=0;points=[];fontSize=8;" parent="37" vertex="1" connectable="0">
                    <mxGeometry x="0.1718" y="2" relative="1" as="geometry">
                        <mxPoint x="-36" y="2" as="offset"/>
                    </mxGeometry>
                </mxCell>
                <mxCell id="39" value="" style="edgeStyle=orthogonalEdgeStyle;rounded=0;orthogonalLoop=1;jettySize=auto;html=1;fontSize=8;" parent="1" source="41" edge="1">
                    <mxGeometry relative="1" as="geometry">
                        <mxPoint x="2100" y="910" as="targetPoint"/>
                    </mxGeometry>
                </mxCell>
                <mxCell id="40" value="TRUE:종료" style="edgeLabel;html=1;align=center;verticalAlign=middle;resizable=0;points=[];fontSize=8;" parent="39" vertex="1" connectable="0">
                    <mxGeometry x="-0.275" relative="1" as="geometry">
                        <mxPoint as="offset"/>
                    </mxGeometry>
                </mxCell>
                <mxCell id="41" value="&lt;span style=&quot;font-size: 8px;&quot;&gt;배출자가 결정한&lt;/span&gt;&lt;br style=&quot;font-size: 8px;&quot;&gt;&lt;span style=&quot;font-size: 8px;&quot;&gt;방문일정이 종료되었는가?&lt;/span&gt;&lt;span style=&quot;font-size: 8px;&quot;&gt;&lt;br style=&quot;font-size: 8px;&quot;&gt;&lt;/span&gt;&lt;span style=&quot;font-size: 8px;&quot;&gt;SITE_WSTE_DISPOSAL_ORDER&lt;/span&gt;&lt;br style=&quot;font-size: 8px;&quot;&gt;&lt;span style=&quot;font-size: 8px;&quot;&gt;VISIT_END_AT &amp;lt;= NOW()&lt;/span&gt;&lt;span style=&quot;font-size: 8px;&quot;&gt;&lt;br style=&quot;font-size: 8px;&quot;&gt;&lt;/span&gt;" style="rhombus;whiteSpace=wrap;html=1;shadow=0;fontFamily=Helvetica;fontSize=8;align=center;strokeWidth=1;spacing=6;spacingTop=-4;" parent="1" vertex="1">
                    <mxGeometry x="1990" y="649" width="220" height="176" as="geometry"/>
                </mxCell>
                <mxCell id="42" value="201:&lt;br style=&quot;font-size: 8px;&quot;&gt;방문중" style="whiteSpace=wrap;html=1;shadow=0;strokeWidth=1;spacing=6;spacingTop=-4;fontSize=8;" parent="1" vertex="1">
                    <mxGeometry x="2400" y="707" width="120" height="60" as="geometry"/>
                </mxCell>
                <mxCell id="43" value="" style="edgeStyle=orthogonalEdgeStyle;rounded=0;orthogonalLoop=1;jettySize=auto;html=1;entryX=1;entryY=0.5;entryDx=0;entryDy=0;fontSize=8;" parent="1" source="47" target="115" edge="1">
                    <mxGeometry relative="1" as="geometry">
                        <mxPoint x="1850" y="1304" as="targetPoint"/>
                    </mxGeometry>
                </mxCell>
                <mxCell id="44" value="FALSE:입찰전" style="edgeLabel;html=1;align=center;verticalAlign=middle;resizable=0;points=[];fontSize=8;" parent="43" vertex="1" connectable="0">
                    <mxGeometry x="-0.3154" y="1" relative="1" as="geometry">
                        <mxPoint x="-16" y="-1" as="offset"/>
                    </mxGeometry>
                </mxCell>
                <mxCell id="45" value="" style="edgeStyle=orthogonalEdgeStyle;rounded=0;orthogonalLoop=1;jettySize=auto;html=1;fontSize=8;" parent="1" source="47" target="52" edge="1">
                    <mxGeometry relative="1" as="geometry"/>
                </mxCell>
                <mxCell id="46" value="TRUE:입찰함" style="edgeLabel;html=1;align=center;verticalAlign=middle;resizable=0;points=[];fontSize=8;" parent="45" vertex="1" connectable="0">
                    <mxGeometry x="-0.2402" relative="1" as="geometry">
                        <mxPoint as="offset"/>
                    </mxGeometry>
                </mxCell>
                <mxCell id="47" value="&lt;span style=&quot;font-size: 8px;&quot;&gt;수거자가 입찰을 하였는가?&lt;/span&gt;&lt;br style=&quot;font-size: 8px;&quot;&gt;&lt;font style=&quot;font-size: 8px;&quot;&gt;COLLECTOR_BIDDING&lt;br style=&quot;font-size: 8px;&quot;&gt;&lt;/font&gt;&lt;span style=&quot;font-size: 8px;&quot;&gt;DATE_OF_BIDDING IS NOT NULL&lt;/span&gt;&lt;span style=&quot;font-size: 8px;&quot;&gt;&lt;br style=&quot;font-size: 8px;&quot;&gt;&lt;/span&gt;" style="rhombus;whiteSpace=wrap;html=1;shadow=0;fontFamily=Helvetica;fontSize=8;align=center;strokeWidth=1;spacing=6;spacingTop=-4;" parent="1" vertex="1">
                    <mxGeometry x="1990" y="1160" width="220" height="176" as="geometry"/>
                </mxCell>
                <mxCell id="48" value="" style="edgeStyle=orthogonalEdgeStyle;rounded=0;orthogonalLoop=1;jettySize=auto;html=1;fontSize=8;" parent="1" source="52" target="53" edge="1">
                    <mxGeometry relative="1" as="geometry"/>
                </mxCell>
                <mxCell id="49" value="TRUE:포기함" style="edgeLabel;html=1;align=center;verticalAlign=middle;resizable=0;points=[];fontSize=8;" parent="48" vertex="1" connectable="0">
                    <mxGeometry x="-0.1735" y="-1" relative="1" as="geometry">
                        <mxPoint as="offset"/>
                    </mxGeometry>
                </mxCell>
                <mxCell id="50" value="" style="edgeStyle=orthogonalEdgeStyle;rounded=0;orthogonalLoop=1;jettySize=auto;html=1;fontSize=8;" parent="1" source="52" edge="1">
                    <mxGeometry relative="1" as="geometry">
                        <mxPoint x="2100" y="1672" as="targetPoint"/>
                    </mxGeometry>
                </mxCell>
                <mxCell id="51" value="FALSE:입찰포기하지 않았음" style="edgeLabel;html=1;align=center;verticalAlign=middle;resizable=0;points=[];fontSize=8;" parent="50" vertex="1" connectable="0">
                    <mxGeometry x="-0.2272" relative="1" as="geometry">
                        <mxPoint as="offset"/>
                    </mxGeometry>
                </mxCell>
                <mxCell id="52" value="&lt;span style=&quot;font-size: 8px;&quot;&gt;수거자가 입찰을 포기하였는가?&lt;/span&gt;&lt;br style=&quot;font-size: 8px;&quot;&gt;&lt;font style=&quot;font-size: 8px;&quot;&gt;COLLECTOR_BIDDING&lt;br style=&quot;font-size: 8px;&quot;&gt;&lt;/font&gt;&lt;span style=&quot;font-size: 8px;&quot;&gt;CANCEL_BIDDING = TRUE&lt;/span&gt;&lt;span style=&quot;font-size: 8px;&quot;&gt;&lt;br style=&quot;font-size: 8px;&quot;&gt;&lt;/span&gt;" style="rhombus;whiteSpace=wrap;html=1;shadow=0;fontFamily=Helvetica;fontSize=8;align=center;strokeWidth=1;spacing=6;spacingTop=-4;" parent="1" vertex="1">
                    <mxGeometry x="1990" y="1416" width="220" height="176" as="geometry"/>
                </mxCell>
                <mxCell id="53" value="207:&lt;br style=&quot;font-size: 8px;&quot;&gt;입찰포기" style="whiteSpace=wrap;html=1;shadow=0;strokeWidth=1;spacing=6;spacingTop=-4;fontSize=8;" parent="1" vertex="1">
                    <mxGeometry x="2390" y="1474" width="120" height="60" as="geometry"/>
                </mxCell>
                <mxCell id="54" value="" style="edgeStyle=orthogonalEdgeStyle;rounded=0;orthogonalLoop=1;jettySize=auto;html=1;fontSize=8;" parent="1" source="58" target="63" edge="1">
                    <mxGeometry relative="1" as="geometry"/>
                </mxCell>
                <mxCell id="55" value="FALSE: 1순위자 아님" style="edgeLabel;html=1;align=center;verticalAlign=middle;resizable=0;points=[];fontSize=8;" parent="54" vertex="1" connectable="0">
                    <mxGeometry x="-0.3284" y="1" relative="1" as="geometry">
                        <mxPoint as="offset"/>
                    </mxGeometry>
                </mxCell>
                <mxCell id="56" value="" style="edgeStyle=orthogonalEdgeStyle;rounded=0;orthogonalLoop=1;jettySize=auto;html=1;fontSize=8;" parent="1" source="58" target="106" edge="1">
                    <mxGeometry relative="1" as="geometry"/>
                </mxCell>
                <mxCell id="57" value="TRUE: 1순위자" style="edgeLabel;html=1;align=center;verticalAlign=middle;resizable=0;points=[];fontSize=8;" parent="56" vertex="1" connectable="0">
                    <mxGeometry x="-0.2569" y="-1" relative="1" as="geometry">
                        <mxPoint x="12" y="-1" as="offset"/>
                    </mxGeometry>
                </mxCell>
                <mxCell id="58" value="&lt;font style=&quot;font-size: 8px;&quot;&gt;수거자가 1순위자인가?&lt;br style=&quot;font-size: 8px;&quot;&gt;SITE_WSTE_DISPOSAL_ORDER.&lt;font style=&quot;font-size: 8px;&quot;&gt;FIRST_PLACE&lt;br style=&quot;font-size: 8px;&quot;&gt;&lt;/font&gt;=COLLECTOR_BIDDING.ID&lt;/font&gt;" style="rhombus;whiteSpace=wrap;html=1;shadow=0;fontFamily=Helvetica;fontSize=8;align=center;strokeWidth=1;spacing=6;spacingTop=-4;" parent="1" vertex="1">
                    <mxGeometry x="1990" y="2233" width="220" height="176" as="geometry"/>
                </mxCell>
                <mxCell id="59" value="" style="edgeStyle=orthogonalEdgeStyle;rounded=0;orthogonalLoop=1;jettySize=auto;html=1;fontSize=8;" parent="1" source="63" target="64" edge="1">
                    <mxGeometry relative="1" as="geometry"/>
                </mxCell>
                <mxCell id="60" value="FALSE:미선정" style="edgeLabel;html=1;align=center;verticalAlign=middle;resizable=0;points=[];fontSize=8;" parent="59" vertex="1" connectable="0">
                    <mxGeometry x="-0.2477" relative="1" as="geometry">
                        <mxPoint as="offset"/>
                    </mxGeometry>
                </mxCell>
                <mxCell id="61" value="" style="edgeStyle=orthogonalEdgeStyle;rounded=0;orthogonalLoop=1;jettySize=auto;html=1;fontSize=8;" parent="1" source="63" target="69" edge="1">
                    <mxGeometry relative="1" as="geometry"/>
                </mxCell>
                <mxCell id="62" value="TRUE:2순위자" style="edgeLabel;html=1;align=center;verticalAlign=middle;resizable=0;points=[];fontSize=8;" parent="61" vertex="1" connectable="0">
                    <mxGeometry x="-0.194" relative="1" as="geometry">
                        <mxPoint as="offset"/>
                    </mxGeometry>
                </mxCell>
                <mxCell id="63" value="&lt;font style=&quot;font-size: 8px;&quot;&gt;수거자가 2순위자인가?&lt;br style=&quot;font-size: 8px;&quot;&gt;SITE_WSTE_DISPOSAL_ORDER.SECOND&lt;font style=&quot;font-size: 8px;&quot;&gt;_PLACE&lt;br style=&quot;font-size: 8px;&quot;&gt;&lt;/font&gt;=COLLECTOR_BIDDING.ID&lt;/font&gt;&lt;span style=&quot;font-size: 8px;&quot;&gt;&lt;br style=&quot;font-size: 8px;&quot;&gt;&lt;/span&gt;" style="rhombus;whiteSpace=wrap;html=1;shadow=0;fontFamily=Helvetica;fontSize=8;align=center;strokeWidth=1;spacing=6;spacingTop=-4;" parent="1" vertex="1">
                    <mxGeometry x="1990" y="2489" width="220" height="176" as="geometry"/>
                </mxCell>
                <mxCell id="64" value="213:&lt;br style=&quot;font-size: 8px;&quot;&gt;유찰" style="whiteSpace=wrap;html=1;shadow=0;strokeWidth=1;spacing=6;spacingTop=-4;fontSize=8;" parent="1" vertex="1">
                    <mxGeometry x="1720" y="2547" width="120" height="60" as="geometry"/>
                </mxCell>
                <mxCell id="65" value="" style="edgeStyle=orthogonalEdgeStyle;rounded=0;orthogonalLoop=1;jettySize=auto;html=1;fontSize=8;entryX=0.5;entryY=0;entryDx=0;entryDy=0;" parent="1" source="69" target="275" edge="1">
                    <mxGeometry relative="1" as="geometry"/>
                </mxCell>
                <mxCell id="66" value="&lt;font style=&quot;font-size: 8px;&quot;&gt;TRUE:보냄&lt;/font&gt;" style="edgeLabel;html=1;align=center;verticalAlign=middle;resizable=0;points=[];fontSize=8;" parent="65" vertex="1" connectable="0">
                    <mxGeometry x="-0.265" relative="1" as="geometry">
                        <mxPoint as="offset"/>
                    </mxGeometry>
                </mxCell>
                <mxCell id="67" value="" style="edgeStyle=orthogonalEdgeStyle;rounded=0;orthogonalLoop=1;jettySize=auto;html=1;fontSize=8;" parent="1" source="69" target="99" edge="1">
                    <mxGeometry relative="1" as="geometry"/>
                </mxCell>
                <mxCell id="68" value="&lt;font style=&quot;font-size: 8px;&quot;&gt;FALSE: 보내지 않음&lt;/font&gt;" style="edgeLabel;html=1;align=center;verticalAlign=middle;resizable=0;points=[];fontSize=8;" parent="67" vertex="1" connectable="0">
                    <mxGeometry x="-0.4" y="1" relative="1" as="geometry">
                        <mxPoint x="21" y="1" as="offset"/>
                    </mxGeometry>
                </mxCell>
                <mxCell id="69" value="&lt;span style=&quot;font-size: 8px;&quot;&gt;배출자가 1순위자에게 수거요청일을 보냈는가?&lt;br style=&quot;font-size: 8px;&quot;&gt;SITE_WSTE_DISPOSAL_ORDER.SELECTED&lt;br style=&quot;font-size: 8px;&quot;&gt;&amp;gt; 0&lt;br style=&quot;font-size: 8px;&quot;&gt;&lt;/span&gt;" style="rhombus;whiteSpace=wrap;html=1;shadow=0;fontFamily=Helvetica;fontSize=8;align=center;strokeWidth=1;spacing=6;spacingTop=-4;" parent="1" vertex="1">
                    <mxGeometry x="1990" y="2745" width="220" height="176" as="geometry"/>
                </mxCell>
                <mxCell id="70" value="" style="edgeStyle=orthogonalEdgeStyle;rounded=0;orthogonalLoop=1;jettySize=auto;html=1;fontSize=8;" parent="1" source="74" target="75" edge="1">
                    <mxGeometry relative="1" as="geometry"/>
                </mxCell>
                <mxCell id="71" value="TRUE: 승낙" style="edgeLabel;html=1;align=center;verticalAlign=middle;resizable=0;points=[];fontSize=8;" parent="70" vertex="1" connectable="0">
                    <mxGeometry x="0.166" y="1" relative="1" as="geometry">
                        <mxPoint x="16" y="-1" as="offset"/>
                    </mxGeometry>
                </mxCell>
                <mxCell id="72" value="" style="edgeStyle=orthogonalEdgeStyle;rounded=0;orthogonalLoop=1;jettySize=auto;html=1;fontSize=8;" parent="1" source="74" target="80" edge="1">
                    <mxGeometry relative="1" as="geometry"/>
                </mxCell>
                <mxCell id="73" value="FALSE: 거절" style="edgeLabel;html=1;align=center;verticalAlign=middle;resizable=0;points=[];fontSize=8;" parent="72" vertex="1" connectable="0">
                    <mxGeometry x="-0.305" relative="1" as="geometry">
                        <mxPoint as="offset"/>
                    </mxGeometry>
                </mxCell>
                <mxCell id="74" value="&lt;span style=&quot;font-size: 8px;&quot;&gt;1순위자가 배출자의 &lt;br style=&quot;font-size: 8px;&quot;&gt;수거요청에 대하여 승낙하였는가?&lt;br style=&quot;font-size: 8px;&quot;&gt;SITE_WSTE_DISPOSAL_ORDER.&lt;br style=&quot;font-size: 8px;&quot;&gt;COLLECTOR_SELECTION_CONFIRMED&lt;br style=&quot;font-size: 8px;&quot;&gt;= TRUE&lt;br style=&quot;font-size: 8px;&quot;&gt;&lt;/span&gt;" style="rhombus;whiteSpace=wrap;html=1;shadow=0;fontFamily=Helvetica;fontSize=8;align=center;strokeWidth=1;spacing=6;spacingTop=-4;" parent="1" vertex="1">
                    <mxGeometry x="1990" y="3240" width="220" height="176" as="geometry"/>
                </mxCell>
                <mxCell id="75" value="213&lt;br style=&quot;font-size: 8px;&quot;&gt;유찰" style="whiteSpace=wrap;html=1;shadow=0;strokeWidth=1;spacing=6;spacingTop=-4;fontSize=8;" parent="1" vertex="1">
                    <mxGeometry x="1720" y="3298" width="120" height="60" as="geometry"/>
                </mxCell>
                <mxCell id="76" value="" style="edgeStyle=orthogonalEdgeStyle;rounded=0;orthogonalLoop=1;jettySize=auto;html=1;entryX=0;entryY=0.5;entryDx=0;entryDy=0;fontSize=8;" parent="1" source="80" target="222" edge="1">
                    <mxGeometry relative="1" as="geometry">
                        <mxPoint x="1840" y="3405" as="targetPoint"/>
                    </mxGeometry>
                </mxCell>
                <mxCell id="77" value="TRUE:의사표시함" style="edgeLabel;html=1;align=center;verticalAlign=middle;resizable=0;points=[];fontSize=8;" parent="76" vertex="1" connectable="0">
                    <mxGeometry x="-0.1841" y="1" relative="1" as="geometry">
                        <mxPoint as="offset"/>
                    </mxGeometry>
                </mxCell>
                <mxCell id="78" value="" style="edgeStyle=orthogonalEdgeStyle;rounded=0;orthogonalLoop=1;jettySize=auto;html=1;fontSize=8;entryX=0.5;entryY=0;entryDx=0;entryDy=0;" parent="1" source="80" target="227" edge="1">
                    <mxGeometry relative="1" as="geometry">
                        <mxPoint x="2110" y="3779" as="targetPoint"/>
                    </mxGeometry>
                </mxCell>
                <mxCell id="79" value="&lt;span style=&quot;font-size: 8px;&quot;&gt;FALSE:의사표시 하지 않음&lt;/span&gt;" style="edgeLabel;html=1;align=center;verticalAlign=middle;resizable=0;points=[];fontSize=8;" parent="78" vertex="1" connectable="0">
                    <mxGeometry x="-0.2284" y="-1" relative="1" as="geometry">
                        <mxPoint as="offset"/>
                    </mxGeometry>
                </mxCell>
                <mxCell id="80" value="&lt;span style=&quot;font-size: 8px;&quot;&gt;2순위자가 낙찰에 대하여&lt;br style=&quot;font-size: 8px;&quot;&gt;수락 또는 거절의 의사를 표시하였는가?&lt;br style=&quot;font-size: 8px;&quot;&gt;COLLECTOR_BIDDING.MAKE_DECISION&lt;br style=&quot;font-size: 8px;&quot;&gt;IS NOT NULL&lt;br style=&quot;font-size: 8px;&quot;&gt;&lt;/span&gt;" style="rhombus;whiteSpace=wrap;html=1;shadow=0;fontFamily=Helvetica;fontSize=8;align=center;strokeWidth=1;spacing=6;spacingTop=-4;" parent="1" vertex="1">
                    <mxGeometry x="1990" y="3496" width="220" height="176" as="geometry"/>
                </mxCell>
                <mxCell id="82" value="" style="edgeStyle=orthogonalEdgeStyle;rounded=0;orthogonalLoop=1;jettySize=auto;html=1;fontSize=8;" parent="1" source="86" edge="1">
                    <mxGeometry relative="1" as="geometry">
                        <mxPoint x="2100" y="1960" as="targetPoint"/>
                    </mxGeometry>
                </mxCell>
                <mxCell id="83" value="FALSE:미거절" style="edgeLabel;html=1;align=center;verticalAlign=middle;resizable=0;points=[];fontSize=8;" parent="82" vertex="1" connectable="0">
                    <mxGeometry x="-0.3083" y="1" relative="1" as="geometry">
                        <mxPoint as="offset"/>
                    </mxGeometry>
                </mxCell>
                <mxCell id="84" value="" style="edgeStyle=orthogonalEdgeStyle;rounded=0;orthogonalLoop=1;jettySize=auto;html=1;exitX=0;exitY=0.5;exitDx=0;exitDy=0;fontSize=8;" parent="1" source="182" target="87" edge="1">
                    <mxGeometry relative="1" as="geometry"/>
                </mxCell>
                <mxCell id="85" value="FALSE:입찰기간중" style="edgeLabel;html=1;align=center;verticalAlign=middle;resizable=0;points=[];fontSize=8;" parent="84" vertex="1" connectable="0">
                    <mxGeometry x="-0.1262" y="1" relative="1" as="geometry">
                        <mxPoint as="offset"/>
                    </mxGeometry>
                </mxCell>
                <mxCell id="86" value="&lt;span style=&quot;font-size: 8px;&quot;&gt;배출자가 수거자의 입찰을 거절하였는가?&lt;/span&gt;&lt;br style=&quot;font-size: 8px;&quot;&gt;&lt;font style=&quot;font-size: 8px;&quot;&gt;COLLECTOR_BIDDING&lt;br style=&quot;font-size: 8px;&quot;&gt;&lt;/font&gt;&lt;span style=&quot;font-size: 8px;&quot;&gt;REJECT_BIDDING&amp;nbsp;= TRUE&lt;/span&gt;" style="rhombus;whiteSpace=wrap;html=1;shadow=0;fontFamily=Helvetica;fontSize=8;align=center;strokeWidth=1;spacing=6;spacingTop=-4;fillColor=#60a917;fontColor=#ffffff;strokeColor=#2D7600;" parent="1" vertex="1">
                    <mxGeometry x="1990" y="1673" width="220" height="176" as="geometry"/>
                </mxCell>
                <mxCell id="87" value="206:&lt;br style=&quot;font-size: 8px;&quot;&gt;입찰중" style="whiteSpace=wrap;html=1;shadow=0;strokeWidth=1;spacing=6;spacingTop=-4;fontSize=8;" parent="1" vertex="1">
                    <mxGeometry x="1720" y="2008" width="120" height="60" as="geometry"/>
                </mxCell>
                <mxCell id="88" value="" style="edgeStyle=orthogonalEdgeStyle;rounded=0;orthogonalLoop=1;jettySize=auto;html=1;fontSize=8;" parent="1" source="92" target="93" edge="1">
                    <mxGeometry relative="1" as="geometry"/>
                </mxCell>
                <mxCell id="89" value="TRUE:종료됨" style="edgeLabel;html=1;align=center;verticalAlign=middle;resizable=0;points=[];fontSize=8;" parent="88" vertex="1" connectable="0">
                    <mxGeometry x="-0.2881" y="-1" relative="1" as="geometry">
                        <mxPoint as="offset"/>
                    </mxGeometry>
                </mxCell>
                <mxCell id="90" value="" style="edgeStyle=orthogonalEdgeStyle;rounded=0;orthogonalLoop=1;jettySize=auto;html=1;fontSize=8;" parent="1" source="92" target="94" edge="1">
                    <mxGeometry relative="1" as="geometry"/>
                </mxCell>
                <mxCell id="91" value="FALSE:종료되지 않음" style="edgeLabel;html=1;align=center;verticalAlign=middle;resizable=0;points=[];fontSize=8;" parent="90" vertex="1" connectable="0">
                    <mxGeometry x="-0.1479" relative="1" as="geometry">
                        <mxPoint as="offset"/>
                    </mxGeometry>
                </mxCell>
                <mxCell id="92" value="&lt;font style=&quot;font-size: 8px;&quot;&gt;&lt;span style=&quot;font-size: 8px;&quot;&gt;배출자가 결정한&lt;/span&gt;&lt;br style=&quot;font-size: 8px;&quot;&gt;&lt;span style=&quot;font-size: 8px;&quot;&gt;방문일정이 종료되었는가?&lt;br style=&quot;font-size: 8px;&quot;&gt;&lt;/span&gt;&lt;span style=&quot;font-size: 8px;&quot;&gt;SITE_WSTE_DISPOSAL_ORDER&lt;/span&gt;&lt;br style=&quot;font-size: 8px;&quot;&gt;&lt;span style=&quot;font-size: 8px;&quot;&gt;VISIT_END_AT &amp;lt;= NOW()&lt;/span&gt;&lt;br style=&quot;font-size: 8px;&quot;&gt;&lt;/font&gt;" style="rhombus;whiteSpace=wrap;html=1;shadow=0;fontFamily=Helvetica;fontSize=8;align=center;strokeWidth=1;spacing=6;spacingTop=-4;" parent="1" vertex="1">
                    <mxGeometry x="2350" y="-145" width="220" height="176" as="geometry"/>
                </mxCell>
                <mxCell id="93" value="203:&lt;br style=&quot;font-size: 8px;&quot;&gt;방문거절" style="whiteSpace=wrap;html=1;shadow=0;strokeWidth=1;spacing=6;spacingTop=-4;fontSize=8;" parent="1" vertex="1">
                    <mxGeometry x="2700" y="-87" width="120" height="60" as="geometry"/>
                </mxCell>
                <mxCell id="94" value="222&lt;br style=&quot;font-size: 8px;&quot;&gt;방문수락대기중" style="whiteSpace=wrap;html=1;shadow=0;strokeWidth=1;spacing=6;spacingTop=-4;fillColor=#60a917;fontColor=#ffffff;strokeColor=#2D7600;fontSize=8;" parent="1" vertex="1">
                    <mxGeometry x="2400" y="169" width="120" height="60" as="geometry"/>
                </mxCell>
                <mxCell id="95" value="" style="edgeStyle=orthogonalEdgeStyle;rounded=0;orthogonalLoop=1;jettySize=auto;html=1;fontSize=8;" parent="1" source="99" target="100" edge="1">
                    <mxGeometry relative="1" as="geometry"/>
                </mxCell>
                <mxCell id="96" value="TRUE: 수락함" style="edgeLabel;html=1;align=center;verticalAlign=middle;resizable=0;points=[];fontSize=8;" parent="95" vertex="1" connectable="0">
                    <mxGeometry x="-0.2995" y="-1" relative="1" as="geometry">
                        <mxPoint as="offset"/>
                    </mxGeometry>
                </mxCell>
                <mxCell id="97" value="" style="edgeStyle=orthogonalEdgeStyle;rounded=0;orthogonalLoop=1;jettySize=auto;html=1;entryX=0;entryY=0.5;entryDx=0;entryDy=0;fontSize=8;" parent="1" source="99" target="304" edge="1">
                    <mxGeometry relative="1" as="geometry">
                        <mxPoint x="2690" y="2833" as="targetPoint"/>
                    </mxGeometry>
                </mxCell>
                <mxCell id="98" value="FALSE: 미수락" style="edgeLabel;html=1;align=center;verticalAlign=middle;resizable=0;points=[];fontSize=8;" parent="97" vertex="1" connectable="0">
                    <mxGeometry x="-0.6382" relative="1" as="geometry">
                        <mxPoint x="37" as="offset"/>
                    </mxGeometry>
                </mxCell>
                <mxCell id="99" value="&lt;font style=&quot;font-size: 8px&quot;&gt;1순위자가 수거요청을 수락하였는가??&lt;br style=&quot;font-size: 8px&quot;&gt;&lt;/font&gt;&lt;span style=&quot;font-size: 8px&quot;&gt;SITE_WSTE_DISPOSAL_ORDER&lt;/span&gt;&lt;span style=&quot;font-size: 8px&quot;&gt;.&lt;br style=&quot;font-size: 8px&quot;&gt;&lt;/span&gt;MAX_SELECT_AT&lt;br style=&quot;font-size: 8px&quot;&gt;&lt;span style=&quot;font-size: 8px&quot;&gt;&amp;lt;= NOW()&lt;br style=&quot;font-size: 8px&quot;&gt;&lt;/span&gt;" style="rhombus;whiteSpace=wrap;html=1;shadow=0;fontFamily=Helvetica;fontSize=8;align=center;strokeWidth=1;spacing=6;spacingTop=-4;" parent="1" vertex="1">
                    <mxGeometry x="2340" y="2745" width="220" height="176" as="geometry"/>
                </mxCell>
                <mxCell id="100" value="213&lt;br style=&quot;font-size: 8px;&quot;&gt;유찰" style="whiteSpace=wrap;html=1;shadow=0;strokeWidth=1;spacing=6;spacingTop=-4;fontSize=8;" parent="1" vertex="1">
                    <mxGeometry x="2390" y="3059" width="120" height="60" as="geometry"/>
                </mxCell>
                <mxCell id="102" value="" style="edgeStyle=orthogonalEdgeStyle;rounded=0;orthogonalLoop=1;jettySize=auto;html=1;entryX=0;entryY=0.5;entryDx=0;entryDy=0;fontSize=8;" parent="1" source="106" target="188" edge="1">
                    <mxGeometry relative="1" as="geometry">
                        <mxPoint x="2660" y="2321" as="targetPoint"/>
                    </mxGeometry>
                </mxCell>
                <mxCell id="103" value="TRUE: 보냄" style="edgeLabel;html=1;align=center;verticalAlign=middle;resizable=0;points=[];fontSize=8;" parent="102" vertex="1" connectable="0">
                    <mxGeometry x="-0.3199" relative="1" as="geometry">
                        <mxPoint x="16" as="offset"/>
                    </mxGeometry>
                </mxCell>
                <mxCell id="193" value="" style="edgeStyle=orthogonalEdgeStyle;html=1;fontSize=8;entryX=0.5;entryY=1;entryDx=0;entryDy=0;" parent="1" source="106" target="192" edge="1">
                    <mxGeometry relative="1" as="geometry">
                        <mxPoint x="2470" y="2160" as="targetPoint"/>
                    </mxGeometry>
                </mxCell>
                <mxCell id="194" value="&lt;span style=&quot;font-size: 8px;&quot;&gt;FALSE: 안보냄&lt;/span&gt;" style="edgeLabel;html=1;align=center;verticalAlign=middle;resizable=0;points=[];fontSize=8;" parent="193" vertex="1" connectable="0">
                    <mxGeometry x="-0.2274" y="1" relative="1" as="geometry">
                        <mxPoint as="offset"/>
                    </mxGeometry>
                </mxCell>
                <mxCell id="106" value="&lt;span style=&quot;font-size: 8px;&quot;&gt;배출자가 1순위자에게 수거요청일을 보냈는가?&lt;br style=&quot;font-size: 8px;&quot;&gt;&lt;/span&gt;&lt;span style=&quot;font-size: 8px;&quot;&gt;SITE_WSTE_DISPOSAL_ORDER.SELECTED=&lt;br style=&quot;font-size: 8px;&quot;&gt;&lt;/span&gt;&lt;span style=&quot;font-size: 8px;&quot;&gt;COLLECTOR_BIDDING.ID&lt;br style=&quot;font-size: 8px;&quot;&gt;&lt;/span&gt;" style="rhombus;whiteSpace=wrap;html=1;shadow=0;fontFamily=Helvetica;fontSize=8;align=center;strokeWidth=1;spacing=6;spacingTop=-4;" parent="1" vertex="1">
                    <mxGeometry x="2340" y="2233" width="220" height="176" as="geometry"/>
                </mxCell>
                <mxCell id="111" style="edgeStyle=orthogonalEdgeStyle;rounded=0;orthogonalLoop=1;jettySize=auto;html=1;entryX=0.5;entryY=0;entryDx=0;entryDy=0;fontSize=8;exitX=0.5;exitY=1;exitDx=0;exitDy=0;" parent="1" source="115" target="178" edge="1">
                    <mxGeometry relative="1" as="geometry">
                        <mxPoint x="1730" y="1060" as="targetPoint"/>
                    </mxGeometry>
                </mxCell>
                <mxCell id="112" value="FALSE:미종료" style="edgeLabel;html=1;align=center;verticalAlign=middle;resizable=0;points=[];fontSize=8;" parent="111" vertex="1" connectable="0">
                    <mxGeometry x="-0.3597" relative="1" as="geometry">
                        <mxPoint y="85" as="offset"/>
                    </mxGeometry>
                </mxCell>
                <mxCell id="181" value="FALSE: 미종료" style="edgeLabel;html=1;align=center;verticalAlign=middle;resizable=0;points=[];fontSize=8;" parent="111" vertex="1" connectable="0">
                    <mxGeometry x="-0.3079" y="-1" relative="1" as="geometry">
                        <mxPoint as="offset"/>
                    </mxGeometry>
                </mxCell>
                <mxCell id="113" value="" style="edgeStyle=orthogonalEdgeStyle;rounded=0;orthogonalLoop=1;jettySize=auto;html=1;fontSize=8;" parent="1" source="115" target="123" edge="1">
                    <mxGeometry relative="1" as="geometry"/>
                </mxCell>
                <mxCell id="114" value="TRUE:종료" style="edgeLabel;html=1;align=center;verticalAlign=middle;resizable=0;points=[];fontSize=8;" parent="113" vertex="1" connectable="0">
                    <mxGeometry x="-0.2103" y="2" relative="1" as="geometry">
                        <mxPoint y="-2" as="offset"/>
                    </mxGeometry>
                </mxCell>
                <mxCell id="115" value="&lt;span style=&quot;font-size: 8px;&quot;&gt;배출자가 결정한&lt;/span&gt;&lt;br style=&quot;font-size: 8px;&quot;&gt;&lt;span style=&quot;font-size: 8px;&quot;&gt;입찰일정이 종료되었는가?&lt;br style=&quot;font-size: 8px;&quot;&gt;&lt;/span&gt;&lt;span style=&quot;font-size: 8px;&quot;&gt;SITE_WSTE_DISPOSAL_ORDER&lt;/span&gt;&lt;span style=&quot;font-size: 8px;&quot;&gt;&lt;br style=&quot;font-size: 8px;&quot;&gt;&lt;/span&gt;&lt;span style=&quot;font-size: 8px;&quot;&gt;BIDDING_END_AT &amp;lt;= NOW()&lt;/span&gt;" style="rhombus;whiteSpace=wrap;html=1;shadow=0;fontFamily=Helvetica;fontSize=8;align=center;strokeWidth=1;spacing=6;spacingTop=-4;" parent="1" vertex="1">
                    <mxGeometry x="1670" y="1160" width="220" height="176" as="geometry"/>
                </mxCell>
                <mxCell id="116" value="" style="edgeStyle=orthogonalEdgeStyle;rounded=0;orthogonalLoop=1;jettySize=auto;html=1;fontSize=8;" parent="1" source="120" target="121" edge="1">
                    <mxGeometry relative="1" as="geometry"/>
                </mxCell>
                <mxCell id="117" value="TRUE:종료됨" style="edgeLabel;html=1;align=center;verticalAlign=middle;resizable=0;points=[];fontSize=8;" parent="116" vertex="1" connectable="0">
                    <mxGeometry x="-0.2881" y="-1" relative="1" as="geometry">
                        <mxPoint as="offset"/>
                    </mxGeometry>
                </mxCell>
                <mxCell id="118" value="" style="edgeStyle=orthogonalEdgeStyle;rounded=0;orthogonalLoop=1;jettySize=auto;html=1;fontSize=8;" parent="1" source="120" target="122" edge="1">
                    <mxGeometry relative="1" as="geometry"/>
                </mxCell>
                <mxCell id="119" value="FALSE:종료되지 않음" style="edgeLabel;html=1;align=center;verticalAlign=middle;resizable=0;points=[];fontSize=8;" parent="118" vertex="1" connectable="0">
                    <mxGeometry x="-0.1479" relative="1" as="geometry">
                        <mxPoint as="offset"/>
                    </mxGeometry>
                </mxCell>
                <mxCell id="120" value="&lt;font style=&quot;font-size: 8px;&quot;&gt;&lt;span style=&quot;font-size: 8px;&quot;&gt;배출자가 결정한&lt;/span&gt;&lt;br style=&quot;font-size: 8px;&quot;&gt;&lt;span style=&quot;font-size: 8px;&quot;&gt;방문일정이 종료되었는가?&lt;br style=&quot;font-size: 8px;&quot;&gt;&lt;/span&gt;&lt;span style=&quot;font-size: 8px;&quot;&gt;SITE_WSTE_DISPOSAL_ORDER&lt;/span&gt;&lt;br style=&quot;font-size: 8px;&quot;&gt;&lt;span style=&quot;font-size: 8px;&quot;&gt;VISIT_END_AT &amp;lt;= NOW()&lt;/span&gt;&lt;br style=&quot;font-size: 8px;&quot;&gt;&lt;/font&gt;" style="rhombus;whiteSpace=wrap;html=1;shadow=0;fontFamily=Helvetica;fontSize=8;align=center;strokeWidth=1;spacing=6;spacingTop=-4;" parent="1" vertex="1">
                    <mxGeometry x="1620" y="-667" width="220" height="176" as="geometry"/>
                </mxCell>
                <mxCell id="121" value="230&lt;br style=&quot;font-size: 8px;&quot;&gt;방문미신청종료" style="whiteSpace=wrap;html=1;shadow=0;strokeWidth=1;spacing=6;spacingTop=-4;fontSize=8;" parent="1" vertex="1">
                    <mxGeometry x="1670" y="-867" width="120" height="60" as="geometry"/>
                </mxCell>
                <mxCell id="122" value="204:&lt;br style=&quot;font-size: 8px;&quot;&gt;방문신청중" style="whiteSpace=wrap;html=1;shadow=0;strokeWidth=1;spacing=6;spacingTop=-4;fillColor=#60a917;fontColor=#ffffff;strokeColor=#2D7600;fontSize=8;" parent="1" vertex="1">
                    <mxGeometry x="1350" y="-609" width="120" height="60" as="geometry"/>
                </mxCell>
                <mxCell id="123" value="238&lt;br style=&quot;font-size: 8px;&quot;&gt;미입찰종료" style="whiteSpace=wrap;html=1;shadow=0;strokeWidth=1;spacing=6;spacingTop=-4;fillColor=#60a917;fontColor=#ffffff;strokeColor=#2D7600;fontSize=8;" parent="1" vertex="1">
                    <mxGeometry x="1390" y="1218" width="120" height="60" as="geometry"/>
                </mxCell>
                <mxCell id="168" value="" style="edgeStyle=orthogonalEdgeStyle;html=1;fontSize=8;" parent="1" source="167" target="47" edge="1">
                    <mxGeometry relative="1" as="geometry"/>
                </mxCell>
                <mxCell id="173" value="FALSE: 미포기" style="edgeLabel;html=1;align=center;verticalAlign=middle;resizable=0;points=[];fontSize=8;" parent="168" vertex="1" connectable="0">
                    <mxGeometry x="-0.3139" relative="1" as="geometry">
                        <mxPoint as="offset"/>
                    </mxGeometry>
                </mxCell>
                <mxCell id="170" style="edgeStyle=orthogonalEdgeStyle;html=1;fontSize=8;" parent="1" source="167" target="169" edge="1">
                    <mxGeometry relative="1" as="geometry"/>
                </mxCell>
                <mxCell id="171" value="TRUE: 포기" style="edgeLabel;html=1;align=center;verticalAlign=middle;resizable=0;points=[];fontSize=8;" parent="170" vertex="1" connectable="0">
                    <mxGeometry x="-0.2997" y="-1" relative="1" as="geometry">
                        <mxPoint as="offset"/>
                    </mxGeometry>
                </mxCell>
                <mxCell id="167" value="&lt;span style=&quot;font-size: 8px;&quot;&gt;수거자가 입찰을 포기하였는가?&lt;br style=&quot;font-size: 8px;&quot;&gt;&lt;/span&gt;&lt;span style=&quot;font-size: 8px;&quot;&gt;COLLECTOR_BIDDING&lt;/span&gt;&lt;br style=&quot;font-size: 8px;&quot;&gt;&lt;span style=&quot;font-size: 8px;&quot;&gt;GIVEUP_BIDDING = TRUE&lt;/span&gt;&lt;span style=&quot;font-size: 8px;&quot;&gt;&lt;br style=&quot;font-size: 8px;&quot;&gt;&lt;/span&gt;" style="rhombus;whiteSpace=wrap;html=1;shadow=0;fontFamily=Helvetica;fontSize=8;align=center;strokeWidth=1;spacing=6;spacingTop=-4;fillColor=#60a917;fontColor=#ffffff;strokeColor=#2D7600;" parent="1" vertex="1">
                    <mxGeometry x="1990" y="910" width="220" height="176" as="geometry"/>
                </mxCell>
                <mxCell id="169" value="244&lt;br style=&quot;font-size: 8px;&quot;&gt;입찰포기" style="whiteSpace=wrap;html=1;shadow=0;strokeWidth=1;spacing=6;spacingTop=-4;fillColor=#60a917;fontColor=#ffffff;strokeColor=#2D7600;fontSize=8;" parent="1" vertex="1">
                    <mxGeometry x="1720" y="968" width="120" height="60" as="geometry"/>
                </mxCell>
                <mxCell id="178" value="224&lt;br style=&quot;font-size: 8px;&quot;&gt;입찰준비중" style="whiteSpace=wrap;html=1;shadow=0;strokeWidth=1;spacing=6;spacingTop=-4;fillColor=#60a917;fontColor=#ffffff;strokeColor=#2D7600;fontSize=8;" parent="1" vertex="1">
                    <mxGeometry x="1720" y="1474" width="120" height="60" as="geometry"/>
                </mxCell>
                <mxCell id="183" value="" style="edgeStyle=orthogonalEdgeStyle;html=1;fontSize=8;" parent="1" source="182" target="58" edge="1">
                    <mxGeometry relative="1" as="geometry"/>
                </mxCell>
                <mxCell id="187" value="TRUE: 입찰기간 종료" style="edgeLabel;html=1;align=center;verticalAlign=middle;resizable=0;points=[];fontSize=8;" parent="183" vertex="1" connectable="0">
                    <mxGeometry x="-0.2627" relative="1" as="geometry">
                        <mxPoint as="offset"/>
                    </mxGeometry>
                </mxCell>
                <mxCell id="182" value="&lt;span style=&quot;font-size: 8px;&quot;&gt;배출자가 결정한&lt;/span&gt;&lt;br style=&quot;font-size: 8px;&quot;&gt;&lt;span style=&quot;font-size: 8px;&quot;&gt;입찰일정이 종료되었는가?&lt;br style=&quot;font-size: 8px;&quot;&gt;&lt;/span&gt;&lt;span style=&quot;font-size: 8px;&quot;&gt;SITE_WSTE_DISPOSAL_ORDER&lt;/span&gt;&lt;span style=&quot;font-size: 8px;&quot;&gt;&lt;br style=&quot;font-size: 8px;&quot;&gt;&lt;/span&gt;&lt;span style=&quot;font-size: 8px;&quot;&gt;BIDDING_END_AT &amp;lt;= NOW()&lt;/span&gt;" style="rhombus;whiteSpace=wrap;html=1;shadow=0;fontFamily=Helvetica;fontSize=8;align=center;strokeWidth=1;spacing=6;spacingTop=-4;" parent="1" vertex="1">
                    <mxGeometry x="1990" y="1950" width="220" height="176" as="geometry"/>
                </mxCell>
                <mxCell id="184" value="231&lt;br style=&quot;font-size: 8px;&quot;&gt;입찰거절" style="whiteSpace=wrap;html=1;shadow=0;strokeWidth=1;spacing=6;spacingTop=-4;fillColor=#60a917;fontColor=#ffffff;strokeColor=#2D7600;fontSize=8;" parent="1" vertex="1">
                    <mxGeometry x="2390" y="1731" width="120" height="60" as="geometry"/>
                </mxCell>
                <mxCell id="185" value="" style="edgeStyle=orthogonalEdgeStyle;rounded=0;orthogonalLoop=1;jettySize=auto;html=1;fontSize=8;exitX=1;exitY=0.5;exitDx=0;exitDy=0;" parent="1" source="86" target="184" edge="1">
                    <mxGeometry relative="1" as="geometry">
                        <mxPoint x="2250" y="1850" as="sourcePoint"/>
                        <Array as="points"/>
                    </mxGeometry>
                </mxCell>
                <mxCell id="186" value="TRUE:거절함" style="edgeLabel;html=1;align=center;verticalAlign=middle;resizable=0;points=[];fontSize=8;" parent="185" vertex="1" connectable="0">
                    <mxGeometry x="-0.1735" y="-1" relative="1" as="geometry">
                        <mxPoint as="offset"/>
                    </mxGeometry>
                </mxCell>
                <mxCell id="190" value="" style="edgeStyle=orthogonalEdgeStyle;html=1;fontSize=8;" parent="1" source="188" target="189" edge="1">
                    <mxGeometry relative="1" as="geometry"/>
                </mxCell>
                <mxCell id="191" value="TRUE 응답하였음" style="edgeLabel;html=1;align=center;verticalAlign=middle;resizable=0;points=[];fontSize=8;" parent="190" vertex="1" connectable="0">
                    <mxGeometry x="-0.3089" y="2" relative="1" as="geometry">
                        <mxPoint as="offset"/>
                    </mxGeometry>
                </mxCell>
                <mxCell id="202" value="" style="edgeStyle=orthogonalEdgeStyle;html=1;fontSize=8;" parent="1" source="188" target="201" edge="1">
                    <mxGeometry relative="1" as="geometry"/>
                </mxCell>
                <mxCell id="203" value="FALSE: 미응답" style="edgeLabel;html=1;align=center;verticalAlign=middle;resizable=0;points=[];fontSize=8;" parent="202" vertex="1" connectable="0">
                    <mxGeometry x="-0.324" y="-2" relative="1" as="geometry">
                        <mxPoint as="offset"/>
                    </mxGeometry>
                </mxCell>
                <mxCell id="188" value="&lt;span style=&quot;font-size: 8px;&quot;&gt;1순위자가 배출자의 요청에 응답하였는가?&lt;br style=&quot;font-size: 8px;&quot;&gt;COLLECTOR_BIDDING.MAKE_DECISION &lt;br style=&quot;font-size: 8px;&quot;&gt;IS NOT NULL&lt;br style=&quot;font-size: 8px;&quot;&gt;&lt;/span&gt;" style="rhombus;whiteSpace=wrap;html=1;shadow=0;fontFamily=Helvetica;fontSize=8;align=center;strokeWidth=1;spacing=6;spacingTop=-4;" parent="1" vertex="1">
                    <mxGeometry x="2690" y="2233" width="220" height="176" as="geometry"/>
                </mxCell>
                <mxCell id="211" style="edgeStyle=orthogonalEdgeStyle;html=1;entryX=0.5;entryY=1;entryDx=0;entryDy=0;fontSize=8;" parent="1" source="189" target="210" edge="1">
                    <mxGeometry relative="1" as="geometry"/>
                </mxCell>
                <mxCell id="212" value="FALSE: 거절" style="edgeLabel;html=1;align=center;verticalAlign=middle;resizable=0;points=[];fontSize=8;" parent="211" vertex="1" connectable="0">
                    <mxGeometry x="-0.2659" y="-1" relative="1" as="geometry">
                        <mxPoint as="offset"/>
                    </mxGeometry>
                </mxCell>
                <mxCell id="214" style="edgeStyle=orthogonalEdgeStyle;html=1;entryX=0;entryY=0.5;entryDx=0;entryDy=0;fontSize=8;" parent="1" source="189" target="213" edge="1">
                    <mxGeometry relative="1" as="geometry"/>
                </mxCell>
                <mxCell id="215" value="TRUE: 승낙" style="edgeLabel;html=1;align=center;verticalAlign=middle;resizable=0;points=[];fontSize=8;" parent="214" vertex="1" connectable="0">
                    <mxGeometry x="-0.2288" relative="1" as="geometry">
                        <mxPoint as="offset"/>
                    </mxGeometry>
                </mxCell>
                <mxCell id="189" value="&lt;span style=&quot;font-size: 8px;&quot;&gt;1순위자가 배출자의 요청을 승낙하였는가?&lt;br style=&quot;font-size: 8px;&quot;&gt;COLLECTOR_BIDDING.MAKE_DECISION &lt;br style=&quot;font-size: 8px;&quot;&gt;= TRUE&lt;br style=&quot;font-size: 8px;&quot;&gt;&lt;/span&gt;" style="rhombus;whiteSpace=wrap;html=1;shadow=0;fontFamily=Helvetica;fontSize=8;align=center;strokeWidth=1;spacing=6;spacingTop=-4;" parent="1" vertex="1">
                    <mxGeometry x="3040" y="2233" width="220" height="176" as="geometry"/>
                </mxCell>
                <mxCell id="196" style="edgeStyle=orthogonalEdgeStyle;html=1;fontSize=8;exitX=0.5;exitY=0;exitDx=0;exitDy=0;entryX=0.5;entryY=1;entryDx=0;entryDy=0;" parent="1" source="192" target="195" edge="1">
                    <mxGeometry relative="1" as="geometry">
                        <Array as="points">
                            <mxPoint x="2450" y="1880"/>
                            <mxPoint x="2800" y="1880"/>
                        </Array>
                        <mxPoint x="2390" y="1761" as="targetPoint"/>
                    </mxGeometry>
                </mxCell>
                <mxCell id="197" value="TRUE: 기한지남" style="edgeLabel;html=1;align=center;verticalAlign=middle;resizable=0;points=[];fontSize=8;" parent="196" vertex="1" connectable="0">
                    <mxGeometry x="-0.2619" y="1" relative="1" as="geometry">
                        <mxPoint as="offset"/>
                    </mxGeometry>
                </mxCell>
                <mxCell id="199" style="edgeStyle=orthogonalEdgeStyle;html=1;fontSize=8;" parent="1" source="192" target="198" edge="1">
                    <mxGeometry relative="1" as="geometry"/>
                </mxCell>
                <mxCell id="200" value="FALSE: 기한지나지 않음" style="edgeLabel;html=1;align=center;verticalAlign=middle;resizable=0;points=[];fontSize=8;" parent="199" vertex="1" connectable="0">
                    <mxGeometry x="-0.2897" y="2" relative="1" as="geometry">
                        <mxPoint as="offset"/>
                    </mxGeometry>
                </mxCell>
                <mxCell id="192" value="&lt;span style=&quot;font-size: 8px;&quot;&gt;배출자가 1순위자에게 수거요청일을 보낼 &lt;br style=&quot;font-size: 8px;&quot;&gt;기한이 지났는가?&lt;br style=&quot;font-size: 8px;&quot;&gt;SITE_WSTE_DISPOSAL_ORDER.MAX_SELECT_AT&lt;br style=&quot;font-size: 8px;&quot;&gt;&amp;lt;= NOW()&lt;br style=&quot;font-size: 8px;&quot;&gt;&lt;/span&gt;" style="rhombus;whiteSpace=wrap;html=1;shadow=0;fontFamily=Helvetica;fontSize=8;align=center;strokeWidth=1;spacing=6;spacingTop=-4;" parent="1" vertex="1">
                    <mxGeometry x="2340" y="1950" width="220" height="176" as="geometry"/>
                </mxCell>
                <mxCell id="195" value="214&lt;br style=&quot;font-size: 8px;&quot;&gt;삭제" style="whiteSpace=wrap;html=1;shadow=0;strokeWidth=1;spacing=6;spacingTop=-4;fontSize=8;" parent="1" vertex="1">
                    <mxGeometry x="2740" y="1731" width="120" height="60" as="geometry"/>
                </mxCell>
                <mxCell id="198" value="226&lt;br style=&quot;font-size: 8px;&quot;&gt;낙찰결정중" style="whiteSpace=wrap;html=1;shadow=0;strokeWidth=1;spacing=6;spacingTop=-4;fontSize=8;" parent="1" vertex="1">
                    <mxGeometry x="2740" y="2008" width="120" height="60" as="geometry"/>
                </mxCell>
                <mxCell id="205" style="edgeStyle=orthogonalEdgeStyle;html=1;entryX=1;entryY=0.5;entryDx=0;entryDy=0;fontSize=8;" parent="1" source="201" target="204" edge="1">
                    <mxGeometry relative="1" as="geometry"/>
                </mxCell>
                <mxCell id="206" value="TRUE: 응답기한 지남" style="edgeLabel;html=1;align=center;verticalAlign=middle;resizable=0;points=[];fontSize=8;" parent="205" vertex="1" connectable="0">
                    <mxGeometry x="-0.4047" relative="1" as="geometry">
                        <mxPoint x="-26" as="offset"/>
                    </mxGeometry>
                </mxCell>
                <mxCell id="208" style="edgeStyle=orthogonalEdgeStyle;html=1;entryX=0;entryY=0.5;entryDx=0;entryDy=0;fontSize=8;" parent="1" source="201" target="207" edge="1">
                    <mxGeometry relative="1" as="geometry"/>
                </mxCell>
                <mxCell id="209" value="FALSE: 응답기한 지나지 않음" style="edgeLabel;html=1;align=center;verticalAlign=middle;resizable=0;points=[];fontSize=8;" parent="208" vertex="1" connectable="0">
                    <mxGeometry x="-0.2813" relative="1" as="geometry">
                        <mxPoint as="offset"/>
                    </mxGeometry>
                </mxCell>
                <mxCell id="201" value="&lt;span style=&quot;font-size: 8px;&quot;&gt;1순위자가 배출자의 요청에 &lt;br style=&quot;font-size: 8px;&quot;&gt;응답할 기한이 지났는가?&lt;br style=&quot;font-size: 8px;&quot;&gt;COLLECTOR_BIDDING.MAX_DECISION_AT&lt;br style=&quot;font-size: 8px;&quot;&gt;&amp;lt;= NOW()&lt;br style=&quot;font-size: 8px;&quot;&gt;&lt;/span&gt;" style="rhombus;whiteSpace=wrap;html=1;shadow=0;fontFamily=Helvetica;fontSize=8;align=center;strokeWidth=1;spacing=6;spacingTop=-4;" parent="1" vertex="1">
                    <mxGeometry x="2690" y="2500" width="220" height="176" as="geometry"/>
                </mxCell>
                <mxCell id="204" value="214&lt;br style=&quot;font-size: 8px;&quot;&gt;삭제" style="whiteSpace=wrap;html=1;shadow=0;strokeWidth=1;spacing=6;spacingTop=-4;fontSize=8;" parent="1" vertex="1">
                    <mxGeometry x="2390" y="2558" width="120" height="60" as="geometry"/>
                </mxCell>
                <mxCell id="207" value="236&lt;br style=&quot;font-size: 8px&quot;&gt;낙찰결정중" style="whiteSpace=wrap;html=1;shadow=0;strokeWidth=1;spacing=6;spacingTop=-4;fontSize=8;" parent="1" vertex="1">
                    <mxGeometry x="3090" y="2558" width="120" height="60" as="geometry"/>
                </mxCell>
                <mxCell id="210" value="239&lt;br style=&quot;font-size: 8px;&quot;&gt;낙찰포기" style="whiteSpace=wrap;html=1;shadow=0;strokeWidth=1;spacing=6;spacingTop=-4;fontSize=8;" parent="1" vertex="1">
                    <mxGeometry x="3090" y="2008" width="120" height="60" as="geometry"/>
                </mxCell>
                <mxCell id="217" style="edgeStyle=orthogonalEdgeStyle;html=1;entryX=0.5;entryY=1;entryDx=0;entryDy=0;fontSize=8;" parent="1" source="213" target="216" edge="1">
                    <mxGeometry relative="1" as="geometry"/>
                </mxCell>
                <mxCell id="218" value="FALSE: 기한 지나지 않음" style="edgeLabel;html=1;align=center;verticalAlign=middle;resizable=0;points=[];fontSize=8;" parent="217" vertex="1" connectable="0">
                    <mxGeometry x="-0.3013" relative="1" as="geometry">
                        <mxPoint as="offset"/>
                    </mxGeometry>
                </mxCell>
                <mxCell id="220" style="edgeStyle=orthogonalEdgeStyle;html=1;entryX=0;entryY=0.5;entryDx=0;entryDy=0;fontSize=8;" parent="1" source="213" target="219" edge="1">
                    <mxGeometry relative="1" as="geometry"/>
                </mxCell>
                <mxCell id="221" value="TRUE: 기한이 지남" style="edgeLabel;html=1;align=center;verticalAlign=middle;resizable=0;points=[];fontSize=8;" parent="220" vertex="1" connectable="0">
                    <mxGeometry x="-0.3035" y="1" relative="1" as="geometry">
                        <mxPoint as="offset"/>
                    </mxGeometry>
                </mxCell>
                <mxCell id="213" value="&lt;span style=&quot;font-size: 8px;&quot;&gt;폐기물의 처리에 대한 &lt;br style=&quot;font-size: 8px;&quot;&gt;계약 기한이 지났는가?&lt;br style=&quot;font-size: 8px;&quot;&gt;SITE_WSTE_DISPOSAL_ORDER.CLOSE_AT&lt;br style=&quot;font-size: 8px;&quot;&gt;&amp;lt;= NOW()&lt;br style=&quot;font-size: 8px;&quot;&gt;NOTE: 계약기한은 처리보고서를 &lt;br style=&quot;font-size: 8px;&quot;&gt;작성하는 경우 처리보고서를 작성한 &lt;br style=&quot;font-size: 8px;&quot;&gt;날짜로 소급적용됨&lt;br style=&quot;font-size: 8px;&quot;&gt;&lt;/span&gt;" style="rhombus;whiteSpace=wrap;html=1;shadow=0;fontFamily=Helvetica;fontSize=8;align=center;strokeWidth=1;spacing=6;spacingTop=-4;" parent="1" vertex="1">
                    <mxGeometry x="3390" y="2233" width="220" height="176" as="geometry"/>
                </mxCell>
                <mxCell id="216" value="212&lt;br style=&quot;font-size: 8px;&quot;&gt;수거중" style="whiteSpace=wrap;html=1;shadow=0;strokeWidth=1;spacing=6;spacingTop=-4;fontSize=8;" parent="1" vertex="1">
                    <mxGeometry x="3440" y="2008" width="120" height="60" as="geometry"/>
                </mxCell>
                <mxCell id="219" value="218&lt;br style=&quot;font-size: 8px;&quot;&gt;처리완료" style="whiteSpace=wrap;html=1;shadow=0;strokeWidth=1;spacing=6;spacingTop=-4;fontSize=8;" parent="1" vertex="1">
                    <mxGeometry x="3740" y="2291" width="120" height="60" as="geometry"/>
                </mxCell>
                <mxCell id="224" style="edgeStyle=orthogonalEdgeStyle;html=1;fontSize=8;" parent="1" source="222" target="223" edge="1">
                    <mxGeometry relative="1" as="geometry"/>
                </mxCell>
                <mxCell id="225" value="FALSE: 거절" style="edgeLabel;html=1;align=center;verticalAlign=middle;resizable=0;points=[];fontSize=8;" parent="224" vertex="1" connectable="0">
                    <mxGeometry x="-0.2346" y="1" relative="1" as="geometry">
                        <mxPoint as="offset"/>
                    </mxGeometry>
                </mxCell>
                <mxCell id="226" style="edgeStyle=orthogonalEdgeStyle;html=1;entryX=0.5;entryY=1;entryDx=0;entryDy=0;fontSize=8;" parent="1" source="222" target="213" edge="1">
                    <mxGeometry relative="1" as="geometry"/>
                </mxCell>
                <mxCell id="303" value="TRUE: 수락" style="edgeLabel;html=1;align=center;verticalAlign=middle;resizable=0;points=[];fontSize=8;" parent="226" vertex="1" connectable="0">
                    <mxGeometry x="-0.9325" relative="1" as="geometry">
                        <mxPoint as="offset"/>
                    </mxGeometry>
                </mxCell>
                <mxCell id="222" value="&lt;span style=&quot;font-size: 8px;&quot;&gt;2순위자가 낙찰을 수락하였는가&lt;/span&gt;&lt;span style=&quot;font-size: 8px;&quot;&gt;?&lt;/span&gt;&lt;br style=&quot;font-size: 8px;&quot;&gt;&lt;span style=&quot;font-size: 8px;&quot;&gt;COLLECTOR_BIDDING.MAKE_DECISION&lt;/span&gt;&lt;br style=&quot;font-size: 8px;&quot;&gt;&lt;span style=&quot;font-size: 8px;&quot;&gt;= TRUE&lt;/span&gt;&lt;span style=&quot;font-size: 8px;&quot;&gt;&lt;br style=&quot;font-size: 8px;&quot;&gt;&lt;/span&gt;" style="rhombus;whiteSpace=wrap;html=1;shadow=0;fontFamily=Helvetica;fontSize=8;align=center;strokeWidth=1;spacing=6;spacingTop=-4;" parent="1" vertex="1">
                    <mxGeometry x="2340" y="3496" width="220" height="176" as="geometry"/>
                </mxCell>
                <mxCell id="223" value="239&lt;br style=&quot;font-size: 8px;&quot;&gt;낙찰포기" style="whiteSpace=wrap;html=1;shadow=0;strokeWidth=1;spacing=6;spacingTop=-4;fontSize=8;" parent="1" vertex="1">
                    <mxGeometry x="2390" y="3810" width="120" height="60" as="geometry"/>
                </mxCell>
                <mxCell id="229" style="edgeStyle=orthogonalEdgeStyle;html=1;entryX=1;entryY=0.5;entryDx=0;entryDy=0;fontSize=8;" parent="1" source="227" target="228" edge="1">
                    <mxGeometry relative="1" as="geometry"/>
                </mxCell>
                <mxCell id="230" value="TRUE : 기한 지남" style="edgeLabel;html=1;align=center;verticalAlign=middle;resizable=0;points=[];fontSize=8;" parent="229" vertex="1" connectable="0">
                    <mxGeometry x="-0.212" relative="1" as="geometry">
                        <mxPoint as="offset"/>
                    </mxGeometry>
                </mxCell>
                <mxCell id="232" value="" style="edgeStyle=orthogonalEdgeStyle;html=1;fontSize=8;" parent="1" source="227" target="231" edge="1">
                    <mxGeometry relative="1" as="geometry"/>
                </mxCell>
                <mxCell id="233" value="FALSE: 기한 지나지 않음" style="edgeLabel;html=1;align=center;verticalAlign=middle;resizable=0;points=[];fontSize=8;" parent="232" vertex="1" connectable="0">
                    <mxGeometry x="-0.1277" y="-1" relative="1" as="geometry">
                        <mxPoint as="offset"/>
                    </mxGeometry>
                </mxCell>
                <mxCell id="227" value="&lt;span style=&quot;font-size: 8px;&quot;&gt;2순위자가 낙찰에 대하여&lt;/span&gt;&lt;br style=&quot;font-size: 8px;&quot;&gt;&lt;span style=&quot;font-size: 8px;&quot;&gt;수락 또는 거절의 의사를 표시를 &lt;/span&gt;&lt;br style=&quot;font-size: 8px;&quot;&gt;&lt;span style=&quot;font-size: 8px;&quot;&gt;해야할 기한이 지났는가?&lt;/span&gt;&lt;br style=&quot;font-size: 8px;&quot;&gt;&lt;span style=&quot;font-size: 8px;&quot;&gt;COLLECTOR_BIDDING.MAX_DECISION_AT&lt;br style=&quot;font-size: 8px;&quot;&gt;&amp;lt;= NOW()&lt;/span&gt;" style="rhombus;whiteSpace=wrap;html=1;shadow=0;fontFamily=Helvetica;fontSize=8;align=center;strokeWidth=1;spacing=6;spacingTop=-4;" parent="1" vertex="1">
                    <mxGeometry x="1990" y="3752" width="220" height="176" as="geometry"/>
                </mxCell>
                <mxCell id="228" value="239&lt;br style=&quot;font-size: 8px;&quot;&gt;낙찰포기" style="whiteSpace=wrap;html=1;shadow=0;strokeWidth=1;spacing=6;spacingTop=-4;fontSize=8;" parent="1" vertex="1">
                    <mxGeometry x="1720" y="3810" width="120" height="60" as="geometry"/>
                </mxCell>
                <mxCell id="231" value="245&lt;br style=&quot;font-size: 8px;&quot;&gt;낙찰결정중" style="whiteSpace=wrap;html=1;shadow=0;strokeWidth=1;spacing=6;spacingTop=-4;fontSize=8;" parent="1" vertex="1">
                    <mxGeometry x="2040" y="4009" width="120" height="60" as="geometry"/>
                </mxCell>
                <mxCell id="251" value="" style="edgeStyle=none;html=1;fontSize=8;" parent="1" source="253" target="256" edge="1">
                    <mxGeometry relative="1" as="geometry"/>
                </mxCell>
                <mxCell id="252" value="TRUE:입찰했음" style="edgeLabel;html=1;align=center;verticalAlign=middle;resizable=0;points=[];fontSize=8;" parent="251" vertex="1" connectable="0">
                    <mxGeometry x="-0.3526" y="-3" relative="1" as="geometry">
                        <mxPoint x="-12" y="3" as="offset"/>
                    </mxGeometry>
                </mxCell>
                <mxCell id="307" value="" style="edgeStyle=orthogonalEdgeStyle;html=1;fontSize=8;" parent="1" source="253" target="41" edge="1">
                    <mxGeometry relative="1" as="geometry"/>
                </mxCell>
                <mxCell id="308" value="FALSE: 미입찰" style="edgeLabel;html=1;align=center;verticalAlign=middle;resizable=0;points=[];fontSize=8;" parent="307" vertex="1" connectable="0">
                    <mxGeometry x="-0.3402" relative="1" as="geometry">
                        <mxPoint as="offset"/>
                    </mxGeometry>
                </mxCell>
                <mxCell id="253" value="&lt;span style=&quot;font-size: 8px;&quot;&gt;수거자가 입찰을 하였는가?&lt;/span&gt;&lt;br style=&quot;font-size: 8px;&quot;&gt;&lt;font style=&quot;font-size: 8px;&quot;&gt;COLLECTOR_BIDDING&lt;br style=&quot;font-size: 8px;&quot;&gt;&lt;/font&gt;&lt;span style=&quot;font-size: 8px;&quot;&gt;DATE_OF_BIDDING IS NOT NULL&lt;/span&gt;" style="rhombus;whiteSpace=wrap;html=1;shadow=0;fontFamily=Helvetica;fontSize=8;align=center;strokeWidth=1;spacing=6;spacingTop=-4;fillColor=#0050ef;fontColor=#ffffff;strokeColor=#001DBC;" parent="1" vertex="1">
                    <mxGeometry x="1990" y="380" width="220" height="176" as="geometry"/>
                </mxCell>
                <mxCell id="314" style="edgeStyle=orthogonalEdgeStyle;html=1;entryX=0;entryY=0.5;entryDx=0;entryDy=0;fontSize=8;exitX=0.5;exitY=1;exitDx=0;exitDy=0;" parent="1" source="256" target="86" edge="1">
                    <mxGeometry relative="1" as="geometry">
                        <Array as="points">
                            <mxPoint x="1780" y="860"/>
                            <mxPoint x="1340" y="860"/>
                            <mxPoint x="1340" y="1761"/>
                        </Array>
                    </mxGeometry>
                </mxCell>
                <mxCell id="315" value="FALSE: 미포기" style="edgeLabel;html=1;align=center;verticalAlign=middle;resizable=0;points=[];fontSize=8;" parent="314" vertex="1" connectable="0">
                    <mxGeometry x="-0.9585" relative="1" as="geometry">
                        <mxPoint as="offset"/>
                    </mxGeometry>
                </mxCell>
                <mxCell id="256" value="&lt;span style=&quot;font-size: 8px;&quot;&gt;수거자가 입찰을 포기하였는가?&lt;/span&gt;&lt;br style=&quot;font-size: 8px;&quot;&gt;&lt;font style=&quot;font-size: 8px;&quot;&gt;COLLECTOR_BIDDING&lt;br style=&quot;font-size: 8px;&quot;&gt;&lt;/font&gt;&lt;span style=&quot;font-size: 8px;&quot;&gt;CANCEL_BIDDING = TRUE&lt;/span&gt;&lt;span style=&quot;font-size: 8px;&quot;&gt;&lt;br style=&quot;font-size: 8px;&quot;&gt;&lt;/span&gt;" style="rhombus;whiteSpace=wrap;html=1;shadow=0;fontFamily=Helvetica;fontSize=8;align=center;strokeWidth=1;spacing=6;spacingTop=-4;fillColor=#0050ef;strokeColor=#001DBC;fontColor=#ffffff;" parent="1" vertex="1">
                    <mxGeometry x="1670" y="380" width="220" height="176" as="geometry"/>
                </mxCell>
                <mxCell id="257" style="edgeStyle=orthogonalEdgeStyle;html=1;exitX=0;exitY=0.5;exitDx=0;exitDy=0;entryX=1;entryY=0.5;entryDx=0;entryDy=0;fontSize=8;" parent="1" source="256" target="309" edge="1">
                    <mxGeometry relative="1" as="geometry">
                        <mxPoint x="1560" y="460" as="targetPoint"/>
                    </mxGeometry>
                </mxCell>
                <mxCell id="258" value="TRUE: 포기함" style="edgeLabel;html=1;align=center;verticalAlign=middle;resizable=0;points=[];fontSize=8;" parent="257" vertex="1" connectable="0">
                    <mxGeometry x="-0.3064" y="-2" relative="1" as="geometry">
                        <mxPoint x="-22" y="2" as="offset"/>
                    </mxGeometry>
                </mxCell>
                <mxCell id="260" value="207&lt;br&gt;입찰포기" style="whiteSpace=wrap;html=1;shadow=0;strokeWidth=1;spacing=6;spacingTop=-4;fillColor=#0050ef;fontColor=#ffffff;strokeColor=#001DBC;fontSize=8;" parent="1" vertex="1">
                    <mxGeometry x="1060" y="438" width="120" height="60" as="geometry"/>
                </mxCell>
                <mxCell id="276" value="" style="edgeStyle=none;html=1;fontSize=8;" parent="1" source="275" target="74" edge="1">
                    <mxGeometry relative="1" as="geometry"/>
                </mxCell>
                <mxCell id="277" value="TRUE: 의사표시함" style="edgeLabel;html=1;align=center;verticalAlign=middle;resizable=0;points=[];fontSize=8;" parent="276" vertex="1" connectable="0">
                    <mxGeometry x="-0.2425" relative="1" as="geometry">
                        <mxPoint as="offset"/>
                    </mxGeometry>
                </mxCell>
                <mxCell id="279" value="" style="edgeStyle=none;html=1;fontSize=8;" parent="1" source="275" target="278" edge="1">
                    <mxGeometry relative="1" as="geometry"/>
                </mxCell>
                <mxCell id="280" value="FALSE: 의사표시 없음" style="edgeLabel;html=1;align=center;verticalAlign=middle;resizable=0;points=[];fontSize=8;" parent="279" vertex="1" connectable="0">
                    <mxGeometry x="0.3393" relative="1" as="geometry">
                        <mxPoint x="17" as="offset"/>
                    </mxGeometry>
                </mxCell>
                <mxCell id="275" value="1순위자가 배출자의&lt;br&gt;수거요청에 대하여 의사표시를 하였는가?&lt;br&gt;SITE_WSTE_DISPOSAL_ORDER.&lt;br&gt;COLLECTOR_SELECTION_CONFIRMED&lt;br&gt;&lt;span style=&quot;font-size: 8px&quot;&gt;IS NOT NULL&lt;br style=&quot;font-size: 8px&quot;&gt;&lt;/span&gt;" style="rhombus;whiteSpace=wrap;html=1;shadow=0;fontFamily=Helvetica;fontSize=8;align=center;strokeWidth=1;spacing=6;spacingTop=-4;" parent="1" vertex="1">
                    <mxGeometry x="1990" y="2990" width="220" height="176" as="geometry"/>
                </mxCell>
                <mxCell id="282" style="edgeStyle=none;html=1;entryX=0.5;entryY=1;entryDx=0;entryDy=0;fontSize=8;" parent="1" source="278" target="281" edge="1">
                    <mxGeometry relative="1" as="geometry"/>
                </mxCell>
                <mxCell id="283" value="FALSE: 의사결정기한 지나지 않음" style="edgeLabel;html=1;align=center;verticalAlign=middle;resizable=0;points=[];fontSize=8;" parent="282" vertex="1" connectable="0">
                    <mxGeometry x="-0.2734" y="-1" relative="1" as="geometry">
                        <mxPoint as="offset"/>
                    </mxGeometry>
                </mxCell>
                <mxCell id="285" value="" style="edgeStyle=none;html=1;fontSize=8;" parent="1" source="278" target="284" edge="1">
                    <mxGeometry relative="1" as="geometry"/>
                </mxCell>
                <mxCell id="286" value="TRUE: 기한 지남" style="edgeLabel;html=1;align=center;verticalAlign=middle;resizable=0;points=[];fontSize=8;" parent="285" vertex="1" connectable="0">
                    <mxGeometry x="0.2658" y="-1" relative="1" as="geometry">
                        <mxPoint x="13" y="1" as="offset"/>
                    </mxGeometry>
                </mxCell>
                <mxCell id="278" value="1순위자의 의사결정기한이 지났는가?&lt;br&gt;SITE_WSTE_DISPOSAL_ORDER.&lt;br&gt;COLLECTOR_MAX_DECISION_AT &amp;lt;= NOW()&lt;span style=&quot;font-size: 8px&quot;&gt;&lt;br style=&quot;font-size: 8px&quot;&gt;&lt;/span&gt;" style="rhombus;whiteSpace=wrap;html=1;shadow=0;fontFamily=Helvetica;fontSize=8;align=center;strokeWidth=1;spacing=6;spacingTop=-4;" parent="1" vertex="1">
                    <mxGeometry x="1670" y="2990" width="220" height="176" as="geometry"/>
                </mxCell>
                <mxCell id="281" value="245&lt;br&gt;낙찰결정중" style="whiteSpace=wrap;html=1;shadow=0;strokeWidth=1;spacing=6;spacingTop=-4;fontSize=8;" parent="1" vertex="1">
                    <mxGeometry x="1720" y="2803" width="120" height="60" as="geometry"/>
                </mxCell>
                <mxCell id="288" value="" style="edgeStyle=none;html=1;fontSize=8;" parent="1" source="284" target="287" edge="1">
                    <mxGeometry relative="1" as="geometry"/>
                </mxCell>
                <mxCell id="289" value="TRUE: 의사표시함" style="edgeLabel;html=1;align=center;verticalAlign=middle;resizable=0;points=[];fontSize=8;" parent="288" vertex="1" connectable="0">
                    <mxGeometry x="0.2836" y="-2" relative="1" as="geometry">
                        <mxPoint x="14" y="2" as="offset"/>
                    </mxGeometry>
                </mxCell>
                <mxCell id="295" value="" style="edgeStyle=orthogonalEdgeStyle;html=1;fontSize=8;" parent="1" source="284" target="294" edge="1">
                    <mxGeometry relative="1" as="geometry"/>
                </mxCell>
                <mxCell id="296" value="FALSE: 의사미표시" style="edgeLabel;html=1;align=center;verticalAlign=middle;resizable=0;points=[];fontSize=8;" parent="295" vertex="1" connectable="0">
                    <mxGeometry x="-0.2026" y="1" relative="1" as="geometry">
                        <mxPoint as="offset"/>
                    </mxGeometry>
                </mxCell>
                <mxCell id="284" value="&lt;span style=&quot;font-size: 8px&quot;&gt;1순위자가 의사표시를 하였는가?COLLECTOR_BIDDING.MAKE_DECISION&lt;br&gt;IS NOT NULL&lt;br style=&quot;font-size: 8px&quot;&gt;&lt;/span&gt;" style="rhombus;whiteSpace=wrap;html=1;shadow=0;fontFamily=Helvetica;fontSize=8;align=center;strokeWidth=1;spacing=6;spacingTop=-4;" parent="1" vertex="1">
                    <mxGeometry x="1340" y="2990" width="220" height="176" as="geometry"/>
                </mxCell>
                <mxCell id="291" style="edgeStyle=none;html=1;entryX=1;entryY=0.5;entryDx=0;entryDy=0;fontSize=8;" parent="1" source="287" target="290" edge="1">
                    <mxGeometry relative="1" as="geometry"/>
                </mxCell>
                <mxCell id="292" value="FALSE: 미수락" style="edgeLabel;html=1;align=center;verticalAlign=middle;resizable=0;points=[];fontSize=8;" parent="291" vertex="1" connectable="0">
                    <mxGeometry x="0.2066" y="-1" relative="1" as="geometry">
                        <mxPoint as="offset"/>
                    </mxGeometry>
                </mxCell>
                <mxCell id="293" style="edgeStyle=orthogonalEdgeStyle;html=1;fontSize=8;entryX=0.5;entryY=1;entryDx=0;entryDy=0;" parent="1" source="287" target="213" edge="1">
                    <mxGeometry relative="1" as="geometry">
                        <mxPoint x="3510" y="2410" as="targetPoint"/>
                        <Array as="points">
                            <mxPoint x="1120" y="4190"/>
                            <mxPoint x="3500" y="4190"/>
                        </Array>
                    </mxGeometry>
                </mxCell>
                <mxCell id="287" value="&lt;span style=&quot;font-size: 8px&quot;&gt;1순위자가 수락 하였는가?COLLECTOR_BIDDING.MAKE_DECISION&lt;br&gt;= TRUE&lt;br style=&quot;font-size: 8px&quot;&gt;&lt;/span&gt;" style="rhombus;whiteSpace=wrap;html=1;shadow=0;fontFamily=Helvetica;fontSize=8;align=center;strokeWidth=1;spacing=6;spacingTop=-4;" parent="1" vertex="1">
                    <mxGeometry x="1010" y="2990" width="220" height="176" as="geometry"/>
                </mxCell>
                <mxCell id="290" value="213&lt;br style=&quot;font-size: 8px;&quot;&gt;유찰" style="whiteSpace=wrap;html=1;shadow=0;strokeWidth=1;spacing=6;spacingTop=-4;fontSize=8;" parent="1" vertex="1">
                    <mxGeometry x="790" y="3048" width="120" height="60" as="geometry"/>
                </mxCell>
                <mxCell id="298" style="edgeStyle=orthogonalEdgeStyle;html=1;entryX=0.5;entryY=1;entryDx=0;entryDy=0;fontSize=8;" parent="1" source="294" target="297" edge="1">
                    <mxGeometry relative="1" as="geometry"/>
                </mxCell>
                <mxCell id="301" value="TRUE: 기한 남음" style="edgeLabel;html=1;align=center;verticalAlign=middle;resizable=0;points=[];fontSize=8;" parent="298" vertex="1" connectable="0">
                    <mxGeometry x="-0.2032" y="2" relative="1" as="geometry">
                        <mxPoint as="offset"/>
                    </mxGeometry>
                </mxCell>
                <mxCell id="300" style="edgeStyle=orthogonalEdgeStyle;html=1;entryX=1;entryY=0.5;entryDx=0;entryDy=0;fontSize=8;" parent="1" source="294" target="299" edge="1">
                    <mxGeometry relative="1" as="geometry"/>
                </mxCell>
                <mxCell id="302" value="FALSE: 기한없음" style="edgeLabel;html=1;align=center;verticalAlign=middle;resizable=0;points=[];fontSize=8;" parent="300" vertex="1" connectable="0">
                    <mxGeometry x="0.1632" y="-2" relative="1" as="geometry">
                        <mxPoint as="offset"/>
                    </mxGeometry>
                </mxCell>
                <mxCell id="294" value="&lt;span style=&quot;font-size: 8px&quot;&gt;1순위자의 의사표시기한이 남았는가?&lt;br&gt;COLLECTOR_BIDDING.MAX_DECISION_AT&lt;br&gt;&amp;lt;= NOW()&lt;br style=&quot;font-size: 8px&quot;&gt;&lt;/span&gt;" style="rhombus;whiteSpace=wrap;html=1;shadow=0;fontFamily=Helvetica;fontSize=8;align=center;strokeWidth=1;spacing=6;spacingTop=-4;" parent="1" vertex="1">
                    <mxGeometry x="1340" y="2745" width="220" height="176" as="geometry"/>
                </mxCell>
                <mxCell id="297" value="245&lt;br&gt;낙찰결정중" style="whiteSpace=wrap;html=1;shadow=0;strokeWidth=1;spacing=6;spacingTop=-4;fontSize=8;" parent="1" vertex="1">
                    <mxGeometry x="1390" y="2547" width="120" height="60" as="geometry"/>
                </mxCell>
                <mxCell id="299" value="239&lt;br&gt;낙찰포기" style="whiteSpace=wrap;html=1;shadow=0;strokeWidth=1;spacing=6;spacingTop=-4;fontSize=8;" parent="1" vertex="1">
                    <mxGeometry x="1060" y="2803" width="120" height="60" as="geometry"/>
                </mxCell>
                <mxCell id="304" value="245&lt;br&gt;낙찰결정중" style="whiteSpace=wrap;html=1;shadow=0;strokeWidth=1;spacing=6;spacingTop=-4;fontSize=8;" parent="1" vertex="1">
                    <mxGeometry x="2740" y="2803" width="120" height="60" as="geometry"/>
                </mxCell>
                <mxCell id="310" style="edgeStyle=orthogonalEdgeStyle;html=1;entryX=1;entryY=0.5;entryDx=0;entryDy=0;fontSize=8;" parent="1" source="309" target="260" edge="1">
                    <mxGeometry relative="1" as="geometry"/>
                </mxCell>
                <mxCell id="311" value="TRUE: 종료" style="edgeLabel;html=1;align=center;verticalAlign=middle;resizable=0;points=[];fontSize=8;" parent="310" vertex="1" connectable="0">
                    <mxGeometry x="-0.1127" relative="1" as="geometry">
                        <mxPoint as="offset"/>
                    </mxGeometry>
                </mxCell>
                <mxCell id="313" style="edgeStyle=orthogonalEdgeStyle;html=1;entryX=0.5;entryY=0;entryDx=0;entryDy=0;fontSize=8;" parent="1" source="309" target="312" edge="1">
                    <mxGeometry relative="1" as="geometry"/>
                </mxCell>
                <mxCell id="309" value="&lt;span style=&quot;color: rgb(240 , 240 , 240)&quot;&gt;배출자가 결정한&lt;/span&gt;&lt;br style=&quot;color: rgb(240 , 240 , 240)&quot;&gt;&lt;span style=&quot;color: rgb(240 , 240 , 240)&quot;&gt;방문일정이 종료되었는가?&lt;/span&gt;&lt;span style=&quot;color: rgb(240 , 240 , 240)&quot;&gt;&lt;br&gt;&lt;/span&gt;&lt;span style=&quot;color: rgb(240 , 240 , 240)&quot;&gt;SITE_WSTE_DISPOSAL_ORDER&lt;/span&gt;&lt;br style=&quot;color: rgb(240 , 240 , 240)&quot;&gt;&lt;span style=&quot;color: rgb(240 , 240 , 240)&quot;&gt;VISIT_END_AT &amp;lt;= NOW()&lt;/span&gt;&lt;span style=&quot;font-size: 8px&quot;&gt;&lt;br style=&quot;font-size: 8px&quot;&gt;&lt;/span&gt;" style="rhombus;whiteSpace=wrap;html=1;shadow=0;fontFamily=Helvetica;fontSize=8;align=center;strokeWidth=1;spacing=6;spacingTop=-4;fillColor=#0050ef;strokeColor=#001DBC;fontColor=#ffffff;" parent="1" vertex="1">
                    <mxGeometry x="1340" y="380" width="220" height="176" as="geometry"/>
                </mxCell>
                <mxCell id="312" value="254&lt;br&gt;예약입찰포기" style="whiteSpace=wrap;html=1;shadow=0;strokeWidth=1;spacing=6;spacingTop=-4;fillColor=#0050ef;fontColor=#ffffff;strokeColor=#001DBC;fontSize=8;" parent="1" vertex="1">
                    <mxGeometry x="1390" y="707" width="120" height="60" as="geometry"/>
                </mxCell>
                <mxCell id="321" style="edgeStyle=orthogonalEdgeStyle;html=1;entryX=0.5;entryY=0;entryDx=0;entryDy=0;fontSize=8;" parent="1" source="317" target="320" edge="1">
                    <mxGeometry relative="1" as="geometry"/>
                </mxCell>
                <mxCell id="322" value="FALSE: 미입찰" style="edgeLabel;html=1;align=center;verticalAlign=middle;resizable=0;points=[];fontSize=8;" parent="321" vertex="1" connectable="0">
                    <mxGeometry x="-0.1874" relative="1" as="geometry">
                        <mxPoint as="offset"/>
                    </mxGeometry>
                </mxCell>
                <mxCell id="317" value="&lt;font style=&quot;font-size: 8px&quot;&gt;&lt;span style=&quot;color: rgb(255 , 255 , 255)&quot;&gt;수거자가 입찰을 하였는가?&lt;/span&gt;&lt;br style=&quot;color: rgb(255 , 255 , 255)&quot;&gt;&lt;font style=&quot;color: rgb(255 , 255 , 255)&quot;&gt;COLLECTOR_BIDDING&lt;br&gt;&lt;/font&gt;&lt;span style=&quot;color: rgb(255 , 255 , 255)&quot;&gt;DATE_OF_BIDDING IS NOT NULL&lt;/span&gt;&lt;br style=&quot;font-size: 8px&quot;&gt;&lt;/font&gt;" style="rhombus;whiteSpace=wrap;html=1;shadow=0;fontFamily=Helvetica;fontSize=8;align=center;strokeWidth=1;spacing=6;spacingTop=-4;" parent="1" vertex="1">
                    <mxGeometry x="2350" y="-924" width="220" height="176" as="geometry"/>
                </mxCell>
                <mxCell id="320" value="206&lt;br&gt;입찰중" style="whiteSpace=wrap;html=1;shadow=0;strokeWidth=1;spacing=6;spacingTop=-4;fontSize=8;" parent="1" vertex="1">
                    <mxGeometry x="2400" y="-609" width="120" height="60" as="geometry"/>
                </mxCell>
            </root>
        </mxGraphModel>
    </diagram>
</mxfile>